<svg width="20" height="20" viewBox="0 0 20 20" fill="none" xmlns="http://www.w3.org/2000/svg">
<path d="M6.92639 9.92639L8.92639 11.9264L12.9264 7.92639M5.76113 2.62344C6.47866 2.56618 7.15985 2.28402 7.70771 1.81714C8.9862 0.72762 10.8666 0.72762 12.1451 1.81714C12.6929 2.28402 13.3741 2.56618 14.0917 2.62344C15.7661 2.75706 17.0957 4.0867 17.2293 5.76113C17.2866 6.47866 17.5688 7.15985 18.0356 7.70771C19.1252 8.9862 19.1252 10.8666 18.0356 12.1451C17.5688 12.6929 17.2866 13.3741 17.2293 14.0917C17.0957 15.7661 15.7661 17.0957 14.0917 17.2293C13.3741 17.2866 12.6929 17.5688 12.1451 18.0356C10.8666 19.1252 8.9862 19.1252 7.70771 18.0356C7.15985 17.5688 6.47866 17.2866 5.76113 17.2293C4.0867 17.0957 2.75706 15.7661 2.62344 14.0917C2.56618 13.3741 2.28402 12.6929 1.81714 12.1451C0.72762 10.8666 0.72762 8.9862 1.81714 7.70771C2.28402 7.15985 2.56618 6.47866 2.62344 5.76113C2.75706 4.0867 4.0867 2.75706 5.76113 2.62344Z" stroke="#F57903" stroke-width="2" stroke-linecap="round" stroke-linejoin="round"/>
</svg>
