<svg xmlns="http://www.w3.org/2000/svg" width="24" height="24" fill="none" viewBox="0 0 24 24"><path stroke="#F57903" stroke-linecap="round" stroke-linejoin="round" stroke-width="2" d="M8.92639 11.9264L10.9264 13.9264L14.9264 9.92639M7.76113 4.62344C8.47866 4.56618 9.15985 4.28402 9.70771 3.81714C10.9862 2.72762 12.8666 2.72762 14.1451 3.81714C14.6929 4.28402 15.3741 4.56618 16.0917 4.62344C17.7661 4.75706 19.0957 6.0867 19.2293 7.76113C19.2866 8.47866 19.5688 9.15985 20.0356 9.70771C21.1252 10.9862 21.1252 12.8666 20.0356 14.1451C19.5688 14.6929 19.2866 15.3741 19.2293 16.0917C19.0957 17.7661 17.7661 19.0957 16.0917 19.2293C15.3741 19.2866 14.6929 19.5688 14.1451 20.0356C12.8666 21.1252 10.9862 21.1252 9.70771 20.0356C9.15985 19.5688 8.47866 19.2866 7.76113 19.2293C6.0867 19.0957 4.75706 17.7661 4.62344 16.0917C4.56618 15.3741 4.28402 14.6929 3.81714 14.1451C2.72762 12.8666 2.72762 10.9862 3.81714 9.70771C4.28402 9.15985 4.56618 8.47866 4.62344 7.76113C4.75706 6.0867 6.0867 4.75706 7.76113 4.62344Z"/></svg>