<svg xmlns="http://www.w3.org/2000/svg" width="26" height="17" fill="none" viewBox="0 0 26 17"><path fill="#F57903" d="M2.96804 16L4.37003 11.9581H10.3359L11.7305 16H14.1765L8.6804 0.727272H6.01811L0.522017 16H2.96804ZM5.04119 10.0192L7.29332 3.50142H7.41264L9.66477 10.0192H5.04119ZM19.5365 16.2536C21.4307 16.2536 22.4971 15.2915 22.9221 14.4339H23.0116V16H25.1892V8.39347C25.1892 5.06001 22.5642 4.39631 20.7446 4.39631C18.6714 4.39631 16.7623 5.23153 16.0166 7.3196L18.1121 7.79688C18.4403 6.98402 19.2755 6.20099 20.7744 6.20099C22.2137 6.20099 22.952 6.95419 22.952 8.25178V8.30398C22.952 9.11683 22.1167 9.10192 20.0585 9.34055C17.8884 9.5941 15.6661 10.1609 15.6661 12.7635C15.6661 15.0156 17.3589 16.2536 19.5365 16.2536ZM20.0212 14.4638C18.7609 14.4638 17.8511 13.897 17.8511 12.7933C17.8511 11.6001 18.9101 11.1751 20.2002 11.0036C20.9236 10.9066 22.6388 10.7127 22.9594 10.392V11.8686C22.9594 13.2259 21.8781 14.4638 20.0212 14.4638Z"/></svg>