<svg xmlns="http://www.w3.org/2000/svg" width="1148" height="18" fill="none" viewBox="0 0 1148 18"><rect width="1148" height="18" fill="#fff"/><rect width="1132" height="1" x="8" y="9" fill="#D1D5DB"/><g clip-path="url(#clip0)"><path fill="#33CB98" d="M506.409 9.12161C506.66 8.06903 508.364 7.86853 509.266 7.66804C510.369 7.41742 511.472 7.21693 512.575 7.11668C511.171 6.56533 509.818 5.81348 508.665 4.91126C508.364 4.66064 508.765 4.20954 509.116 4.46015C511.472 6.31471 514.279 6.86607 517.036 7.76829C517.386 7.86853 517.286 8.31964 516.985 8.36977C516.985 8.36977 516.885 8.41989 516.835 8.36977C516.484 8.36977 514.028 7.61792 513.727 7.51767C512.575 7.56779 511.472 7.71816 510.319 7.96878C509.266 8.2194 507.512 8.47001 506.81 9.32211C506.66 9.5226 506.359 9.32211 506.409 9.12161Z"/><path fill="#FF922C" d="M504.856 6.76678C504.254 7.11765 503.903 7.81937 503.853 8.5211C503.753 8.5211 503.653 8.57122 503.552 8.57122C503.252 8.62134 502.901 8.67147 502.6 8.67147C502.45 8.67147 502.4 8.92208 502.6 8.92208C503.001 8.97221 503.502 9.02233 503.903 8.92208C503.903 8.97221 503.903 9.02233 503.953 9.07245C503.853 9.12258 503.753 9.1727 503.653 9.22282C503.402 9.32307 503.101 9.42332 502.901 9.57369C502.75 9.67393 502.851 9.87443 503.001 9.87443C503.302 9.87443 503.602 9.77418 503.853 9.67393C503.953 9.62381 504.003 9.62381 504.104 9.57369C504.104 9.57369 504.104 9.62381 504.154 9.62381L504.104 9.67393C503.853 9.92455 503.602 10.125 503.402 10.3757C503.352 10.4759 503.452 10.5762 503.502 10.526C503.803 10.3757 504.054 10.125 504.304 9.92455C504.304 9.92455 504.354 9.92455 504.354 9.87443C504.555 10.125 504.906 10.4258 505.457 10.526C506.46 10.6764 507.662 9.97467 507.813 8.82184C507.963 7.81937 507.261 6.91715 506.409 6.61641C506.359 6.61641 505.607 6.3658 504.856 6.76678Z"/><path fill="#FF922C" d="M506.811 3.0564C506.961 3.35714 507.162 3.65788 507.312 3.9085C507.312 3.95862 507.262 3.95862 507.262 3.95862C507.212 3.95862 507.162 3.9085 507.111 3.85838C506.811 3.70801 506.51 3.55764 506.209 3.40727C506.059 3.35714 505.959 3.50751 506.059 3.60776C506.31 3.80825 506.61 4.00875 506.861 4.15912C506.961 4.20924 507.011 4.25936 507.111 4.30949V4.35961C507.061 4.35961 507.011 4.35961 506.961 4.35961C506.711 4.35961 506.46 4.30949 506.209 4.35961C506.159 4.35961 506.159 4.50998 506.209 4.50998C506.46 4.61023 506.711 4.61023 506.961 4.61023C507.011 4.61023 507.011 4.61023 507.061 4.61023C507.061 4.7606 507.061 4.91097 507.061 5.06134C507.162 5.66281 507.613 6.31442 508.365 6.51491C509.267 6.7154 510.069 6.01368 510.319 5.31195C510.37 5.16158 510.52 4.81072 510.42 4.40973C510.169 3.50751 508.866 2.85591 508.014 3.2569C507.813 3.35714 507.613 3.50751 507.512 3.65788C507.312 3.40727 507.162 3.15665 507.011 2.90604C506.911 2.75567 506.711 2.90604 506.811 3.0564Z"/><path fill="#33CB98" d="M517.036 5.11336C517.738 5.66471 517.437 5.36397 520.093 7.06816C521.597 8.07063 522.399 8.62198 522.65 8.42149C522.8 8.27112 522.65 7.82001 522.549 7.5694C521.397 4.66225 519.542 0.151153 516.735 0.000783176C516.434 0.000783176 515.382 -0.0493401 514.78 0.652385C514.73 0.702509 514.429 1.00325 514.379 1.45436C514.079 2.75756 515.833 4.16101 517.036 5.11336ZM519.943 3.50941C520.544 4.51188 521.046 5.61459 521.497 6.7173C520.945 5.8652 520.194 5.11336 519.492 4.46175C518.289 3.25879 517.086 2.05584 515.833 0.903002C516.535 0.802755 517.487 1.05337 517.938 1.35411C518.84 1.85534 519.442 2.65732 519.943 3.50941ZM515.382 1.00325C517.387 3.15855 519.542 5.01311 521.346 7.31878C520.745 6.91779 520.093 6.51681 519.542 6.11582C518.139 5.16348 516.284 4.06077 515.382 2.55707C514.881 1.70497 514.981 1.25386 515.382 1.00325Z"/><path fill="#33CB98" d="M513.527 13.9839C513.878 16.089 516.635 15.3372 517.938 14.836C520.294 13.9839 522.599 12.0792 525.206 12.2797C525.256 12.2797 525.306 12.2797 525.306 12.2797C525.406 12.2295 525.406 12.0291 525.356 11.8787C525.256 11.6782 525.106 11.5779 525.005 11.5278C520.695 9.27227 517.487 10.375 517.487 10.375C515.833 10.6757 513.176 11.7283 513.527 13.9839ZM523.652 11.3273C521.848 11.2271 519.993 11.5779 518.289 12.0792C517.136 12.3799 515.933 12.7308 514.83 13.1819C514.58 13.2821 514.379 13.3824 514.229 13.4826V13.4325C514.129 12.7308 514.88 12.1293 515.332 11.8286C516.434 10.9765 517.687 10.9263 518.89 10.8261C520.544 10.6256 522.098 10.8762 523.652 11.3273ZM514.429 13.9839C515.682 13.1318 517.437 12.6807 518.84 12.2797C520.494 11.8286 522.048 11.6281 523.702 11.5779C522.95 11.7784 522.148 12.1293 521.697 12.3298C519.993 13.0315 518.439 14.0841 516.635 14.4851C516.434 14.5352 515.983 14.7357 515.432 14.6355C515.081 14.5853 514.68 14.3347 514.429 13.9839Z"/><path fill="#33CB98" d="M550.668 17.7948C552.824 18.5466 556.282 13.6847 557.184 12.3815C558.036 11.1785 558.638 10.1259 558.989 9.42421C560.392 9.27384 561.796 9.07335 563.199 8.87286C563.7 8.82273 563.55 8.02076 563.049 8.12101C561.294 8.37162 559.54 8.57212 557.786 8.77261C556.633 6.51706 555.129 3.96078 553.174 2.30671C552.272 1.50474 550.217 0.552396 549.515 2.10622C548.814 3.66004 550.668 5.31411 551.671 6.11608C553.024 7.26891 554.678 8.37162 556.432 8.92298C554.728 9.02323 553.074 9.12347 551.37 9.22372C550.618 8.77261 549.766 8.52199 549.014 8.12101C548.062 7.56965 547.21 6.91805 546.408 6.21632C546.107 5.96571 545.706 6.36669 545.957 6.61731C546.959 7.51953 548.262 8.62224 549.666 9.27384C547.962 9.22372 546.207 9.1736 544.503 9.1736C544.052 7.87039 541.345 0.45215 537.837 0.251657C537.586 0.251657 536.834 0.201534 536.483 0.652643C535.681 1.70523 537.436 4.56226 538.689 5.76521C539.942 6.96817 541.295 8.3215 542.949 9.02323C541.997 8.92298 540.994 8.82273 540.042 8.67236C539.441 8.42175 538.789 8.02076 538.137 7.41928C536.934 6.26645 536.283 5.56472 535.882 5.01337C535.681 4.71263 535.23 5.06349 535.381 5.36423C535.932 6.36669 536.734 7.21879 537.636 7.92052C537.837 8.07088 538.037 8.22125 538.288 8.42175C535.23 7.92051 532.223 7.16867 529.165 6.31657C528.915 6.26645 528.814 6.56719 529.065 6.66743C530.669 7.36916 532.323 7.92052 534.027 8.37162C532.874 8.67236 531.772 9.07335 530.719 9.57458C530.469 9.72495 530.669 10.0758 530.92 9.97557C532.423 9.42421 533.927 9.02323 535.481 8.77261C537.185 9.1736 538.889 9.47434 540.593 9.67483C537.987 10.1259 535.33 10.9279 533.025 12.181C531.521 13.0331 529.616 14.8876 530.519 16.7422C531.471 18.7471 534.228 17.3437 535.431 16.3913C536.734 15.3889 537.887 14.1859 539.19 13.1333C540.493 12.0306 542.047 11.1284 543.3 9.97557C543.3 9.97557 543.3 9.97557 543.35 9.92544C545.305 9.97557 547.31 10.0758 549.265 10.1259C549.064 10.2262 548.814 10.3264 548.613 10.4267C547.611 10.9279 546.708 11.5795 545.856 12.3314C545.606 12.582 545.957 12.9328 546.207 12.7323C546.658 12.3314 547.26 11.9805 548.864 10.978C549.415 10.6773 550.017 10.3766 550.768 10.1761C550.969 10.1259 551.119 10.0758 551.27 10.0758C553.174 9.97557 555.029 9.8252 556.934 9.72495C555.129 10.4267 553.425 11.4793 552.022 12.6822C550.969 13.5343 548.914 15.7397 550.017 17.2434C550.217 17.5442 550.618 17.7447 550.668 17.7948ZM531.772 16.5918C531.671 16.5417 531.571 16.4415 531.521 16.3412C533.125 14.8375 534.98 13.8852 536.884 12.7825C538.538 11.8301 540.192 10.8778 541.947 10.1259C541.796 10.2763 541.596 10.4267 541.345 10.577C540.744 11.0282 539.29 12.1309 538.087 13.1835C535.431 15.3889 534.428 16.642 532.774 16.8425C532.524 16.7923 532.123 16.7923 531.772 16.5918ZM535.681 11.4793C538.238 10.6773 541.045 10.0257 542.197 9.72495C540.142 10.3766 538.238 11.4793 536.283 12.4316C534.428 13.3839 532.724 14.3864 531.17 15.7899C531.02 15.2385 531.12 14.637 531.471 14.0857C531.872 13.4341 532.524 12.9328 533.175 12.582C534.478 11.8803 535.531 11.5294 535.681 11.4793ZM536.834 1.30425C537.787 2.7077 538.939 3.86053 540.142 5.06349C541.295 6.1662 542.248 7.31904 543.2 8.57212C541.646 7.6699 540.543 6.76768 539.842 6.06595C539.34 5.56472 536.233 2.60745 536.834 1.30425ZM541.646 4.61238C542.197 5.5146 542.899 6.8178 543.501 8.57212C541.796 5.71509 538.939 3.81041 537.235 0.953383L537.185 0.903259C537.386 0.803013 537.536 0.803013 537.586 0.75289C539.14 0.552397 540.694 3.05856 541.646 4.61238ZM550.067 2.60745C550.067 2.60745 550.067 2.55733 550.117 2.55733C552.072 4.71263 554.327 6.86793 556.783 8.47187C555.781 8.12101 554.478 7.51953 553.074 6.51706C551.821 5.56472 550.919 4.61238 550.367 3.81041C550.017 3.30918 549.916 2.85807 550.067 2.60745ZM556.934 8.22125C555.881 7.26891 554.728 6.41682 553.726 5.41435C552.623 4.31164 551.57 3.25905 550.518 2.10622C550.718 2.00597 550.869 2.00597 550.969 1.95585C551.42 1.8556 552.272 1.95585 554.077 3.91065C554.879 4.863 555.931 6.26645 556.934 8.22125ZM553.776 11.9805C554.678 11.379 555.931 10.577 557.585 9.87532C555.129 11.8803 552.423 13.9353 550.518 16.4916C550.418 16.2911 550.367 16.1407 550.317 15.9402C550.167 14.5368 552.022 13.2336 553.776 11.9805ZM551.22 17.0931C551.119 17.0429 551.069 17.0429 550.969 16.9928C552.623 14.1859 555.53 12.1309 557.936 9.92544C557.034 11.6296 556.132 12.8827 555.43 13.7348C554.127 15.3889 552.423 17.4941 551.22 17.0931Z"/><path fill="#FF922C" d="M526.81 7.91736C526.208 7.5665 525.857 6.86477 525.807 6.16305C525.707 6.16305 525.607 6.11293 525.506 6.11293C525.206 6.0628 524.905 6.01268 524.554 6.01268C524.404 6.01268 524.354 5.76206 524.554 5.76206C524.955 5.71194 525.456 5.66182 525.857 5.76206C525.857 5.71194 525.857 5.66182 525.907 5.61169C525.807 5.56157 525.707 5.51145 525.607 5.46132C525.356 5.36108 525.055 5.26083 524.855 5.11046C524.704 5.01021 524.805 4.80972 524.955 4.80972C525.256 4.80972 525.557 4.90997 525.807 5.01021C525.907 5.06034 525.958 5.06034 526.058 5.11046C526.058 5.11046 526.058 5.06034 526.108 5.06034L526.058 5.01021C525.807 4.80972 525.557 4.55911 525.356 4.30849C525.306 4.20824 525.406 4.108 525.456 4.15812C525.757 4.30849 526.008 4.55911 526.258 4.7596C526.258 4.7596 526.308 4.7596 526.308 4.80972C526.509 4.55911 526.86 4.25837 527.411 4.15812C528.414 4.00775 529.617 4.65935 529.817 5.81219C529.967 6.81465 529.266 7.71687 528.464 8.01761C528.313 8.06773 527.562 8.31835 526.81 7.91736Z"/><path fill="#FF922C" d="M528.765 11.6294C528.915 11.3287 529.116 11.0279 529.266 10.7773C529.266 10.7272 529.216 10.7272 529.216 10.7272C529.166 10.7773 529.116 10.7773 529.065 10.8274C528.765 10.9778 528.464 11.1783 528.163 11.2786C528.063 11.3287 527.963 11.1783 528.063 11.0781C528.314 10.8776 528.614 10.6771 528.865 10.5267C528.965 10.4766 529.015 10.4265 529.116 10.3763V10.3262C529.065 10.3262 529.015 10.3262 528.965 10.3262C528.715 10.3262 528.464 10.3763 528.213 10.3262C528.113 10.3262 528.113 10.1758 528.213 10.1257C528.464 10.0255 528.715 10.0255 528.965 10.0255C529.015 10.0255 529.015 10.0255 529.065 10.0255C529.065 9.8751 529.015 9.72473 529.065 9.57436C529.166 8.97289 529.617 8.27116 530.369 8.12079C531.271 7.9203 532.073 8.62202 532.374 9.27362C532.424 9.42399 532.574 9.77486 532.474 10.1758C532.223 11.1282 530.92 11.7297 530.068 11.3287C529.867 11.2284 529.667 11.0781 529.567 10.9277C529.416 11.1783 529.266 11.4289 529.116 11.6795C528.915 11.88 528.715 11.7798 528.765 11.6294Z"/><path fill="#FF922C" d="M543.751 15.5369C543.751 15.1359 543.852 14.7349 544.002 14.384C543.952 14.3339 543.952 14.3339 543.902 14.2838C543.801 14.4341 543.25 15.1359 542.999 15.2361C542.949 15.2361 542.849 15.2862 542.799 15.2361C542.749 15.186 542.749 15.0356 542.749 15.0356C542.749 14.9354 542.849 14.8351 542.899 14.8351C543.05 14.6848 543.35 14.4341 543.751 14.1334C543.751 14.1334 543.701 14.0833 543.701 14.0332C543.701 13.983 543.651 13.983 543.651 13.9329C543.651 13.9329 543.601 13.9329 543.601 13.983C543.35 14.0833 543.1 14.2336 542.799 14.2838C542.699 14.2838 542.599 14.1835 542.699 14.0833C542.899 13.8828 543.2 13.7825 543.451 13.6823H543.501C543.451 13.5319 543.35 13.2813 543.35 12.9806C543.35 12.329 543.751 11.527 544.503 11.2263C545.155 10.9756 545.756 11.2764 545.957 11.3766C546.107 11.4267 547.11 11.928 547.21 12.8803C547.31 13.8327 546.558 14.8351 545.506 14.9354C545.105 14.9855 544.754 14.8852 544.453 14.6848C544.353 14.9855 544.303 15.2862 544.202 15.6371C544.052 15.7875 543.751 15.7875 543.751 15.5369Z"/><path fill="#FF922C" d="M532.524 4.51056C532.524 4.10957 532.724 3.75871 532.925 3.50809C532.574 3.40784 532.273 3.25747 531.922 3.15723C531.772 3.1071 531.822 2.90661 531.972 2.90661C532.373 2.95674 532.825 3.00686 533.226 3.15723C533.075 3.00686 532.975 2.85649 532.825 2.75624C532.624 2.55575 532.373 2.35526 532.173 2.10464C532.123 2.00439 532.173 1.85402 532.273 1.90415C532.524 2.00439 532.774 2.20489 533.025 2.40538C533.175 2.55575 533.376 2.70612 533.526 2.90661C533.576 2.85649 533.627 2.85649 533.677 2.85649C533.677 2.80637 533.677 2.80637 533.677 2.75624C533.627 2.50563 533.526 2.20489 533.476 1.95427C533.476 1.85402 533.627 1.75378 533.677 1.85402C533.827 2.10464 533.977 2.40538 534.078 2.75624C534.328 2.70612 534.529 2.656 534.779 2.70612C535.481 2.75624 536.183 3.1071 536.534 3.65846C537.035 4.56068 536.283 5.96413 535.23 6.31499C533.977 6.66586 532.524 5.61327 532.524 4.51056Z"/><path fill="#FF922C" d="M545.656 7.868C544.654 7.46702 544.353 6.11369 544.754 5.21147C544.453 5.11122 544.152 5.01098 543.852 4.91073C543.751 4.86061 543.751 4.71024 543.852 4.66011C544.052 4.50974 544.353 4.66011 544.603 4.71024C544.754 4.76036 544.854 4.76036 545.004 4.81048C545.055 4.76036 545.105 4.71024 545.155 4.66011C545.155 4.66011 545.155 4.66011 545.105 4.60999C544.804 4.35937 544.503 4.10876 544.202 3.85814C544.052 3.70777 544.202 3.45715 544.403 3.5574C544.754 3.80802 545.105 4.05863 545.405 4.30925C545.455 4.30925 545.455 4.35937 545.506 4.35937C545.556 4.35937 545.606 4.30925 545.656 4.30925C545.556 3.95839 545.405 3.60752 545.305 3.25666C545.255 3.10629 545.556 3.00605 545.606 3.15642C545.756 3.50728 545.856 3.85814 546.007 4.209C546.809 4.05863 547.711 4.50974 548.062 5.26159C548.363 5.96332 548.062 6.71517 548.062 6.81541C548.012 6.91566 547.962 7.06603 547.811 7.26652C547.31 7.81788 546.408 8.16874 545.656 7.868Z"/></g><circle cx="574" cy="9" r="4.5" fill="#F57903"/><g clip-path="url(#clip1)"><path fill="#33CB98" d="M641.591 9.12161C641.34 8.06903 639.636 7.86853 638.734 7.66804C637.631 7.41742 636.528 7.21693 635.425 7.11668C636.829 6.56533 638.182 5.81348 639.335 4.91126C639.636 4.66064 639.235 4.20954 638.884 4.46015C636.528 6.31471 633.721 6.86607 630.964 7.76829C630.614 7.86853 630.714 8.31964 631.015 8.36977C631.015 8.36977 631.115 8.41989 631.165 8.36977C631.516 8.36977 633.972 7.61792 634.273 7.51767C635.425 7.56779 636.528 7.71816 637.681 7.96878C638.734 8.2194 640.488 8.47001 641.19 9.32211C641.34 9.5226 641.641 9.32211 641.591 9.12161Z"/><path fill="#FF922C" d="M643.144 6.76678C643.746 7.11765 644.097 7.81937 644.147 8.5211C644.247 8.5211 644.347 8.57122 644.448 8.57122C644.748 8.62134 645.099 8.67147 645.4 8.67147C645.55 8.67147 645.6 8.92208 645.4 8.92208C644.999 8.97221 644.498 9.02233 644.097 8.92208C644.097 8.97221 644.097 9.02233 644.047 9.07245C644.147 9.12258 644.247 9.1727 644.347 9.22282C644.598 9.32307 644.899 9.42332 645.099 9.57369C645.25 9.67393 645.149 9.87443 644.999 9.87443C644.698 9.87443 644.398 9.77418 644.147 9.67393C644.047 9.62381 643.997 9.62381 643.896 9.57369C643.896 9.57369 643.896 9.62381 643.846 9.62381L643.896 9.67393C644.147 9.92455 644.398 10.125 644.598 10.3757C644.648 10.4759 644.548 10.5762 644.498 10.526C644.197 10.3757 643.946 10.125 643.696 9.92455C643.696 9.92455 643.646 9.92455 643.646 9.87443C643.445 10.125 643.094 10.4258 642.543 10.526C641.54 10.6764 640.338 9.97467 640.187 8.82184C640.037 7.81937 640.739 6.91715 641.591 6.61641C641.641 6.61641 642.393 6.3658 643.144 6.76678Z"/><path fill="#FF922C" d="M641.189 3.0564C641.039 3.35714 640.838 3.65788 640.688 3.9085C640.688 3.95862 640.738 3.95862 640.738 3.95862C640.788 3.95862 640.838 3.9085 640.889 3.85838C641.189 3.70801 641.49 3.55764 641.791 3.40727C641.941 3.35714 642.041 3.50751 641.941 3.60776C641.69 3.80825 641.39 4.00875 641.139 4.15912C641.039 4.20924 640.989 4.25936 640.889 4.30949V4.35961C640.939 4.35961 640.989 4.35961 641.039 4.35961C641.289 4.35961 641.54 4.30949 641.791 4.35961C641.841 4.35961 641.841 4.50998 641.791 4.50998C641.54 4.61023 641.289 4.61023 641.039 4.61023C640.989 4.61023 640.989 4.61023 640.939 4.61023C640.939 4.7606 640.939 4.91097 640.939 5.06134C640.838 5.66281 640.387 6.31442 639.635 6.51491C638.733 6.7154 637.931 6.01368 637.681 5.31195C637.63 5.16158 637.48 4.81072 637.58 4.40973C637.831 3.50751 639.134 2.85591 639.986 3.2569C640.187 3.35714 640.387 3.50751 640.488 3.65788C640.688 3.40727 640.838 3.15665 640.989 2.90604C641.089 2.75567 641.289 2.90604 641.189 3.0564Z"/><path fill="#33CB98" d="M630.964 5.11336C630.262 5.66471 630.563 5.36397 627.907 7.06816C626.403 8.07063 625.601 8.62198 625.35 8.42149C625.2 8.27112 625.35 7.82001 625.451 7.5694C626.603 4.66225 628.458 0.151153 631.265 0.000783176C631.566 0.000783176 632.618 -0.0493401 633.22 0.652385C633.27 0.702509 633.571 1.00325 633.621 1.45436C633.921 2.75756 632.167 4.16101 630.964 5.11336ZM628.057 3.50941C627.456 4.51188 626.954 5.61459 626.503 6.7173C627.055 5.8652 627.806 5.11336 628.508 4.46175C629.711 3.25879 630.914 2.05584 632.167 0.903002C631.465 0.802755 630.513 1.05337 630.062 1.35411C629.16 1.85534 628.558 2.65732 628.057 3.50941ZM632.618 1.00325C630.613 3.15855 628.458 5.01311 626.654 7.31878C627.255 6.91779 627.907 6.51681 628.458 6.11582C629.861 5.16348 631.716 4.06077 632.618 2.55707C633.119 1.70497 633.019 1.25386 632.618 1.00325Z"/><path fill="#33CB98" d="M634.473 13.9839C634.122 16.089 631.365 15.3372 630.062 14.836C627.706 13.9839 625.401 12.0792 622.794 12.2797C622.744 12.2797 622.694 12.2797 622.694 12.2797C622.594 12.2295 622.594 12.0291 622.644 11.8787C622.744 11.6782 622.894 11.5779 622.995 11.5278C627.305 9.27227 630.513 10.375 630.513 10.375C632.167 10.6757 634.824 11.7283 634.473 13.9839ZM624.348 11.3273C626.152 11.2271 628.007 11.5779 629.711 12.0792C630.864 12.3799 632.067 12.7308 633.17 13.1819C633.42 13.2821 633.621 13.3824 633.771 13.4826V13.4325C633.871 12.7308 633.12 12.1293 632.668 11.8286C631.566 10.9765 630.313 10.9263 629.11 10.8261C627.456 10.6256 625.902 10.8762 624.348 11.3273ZM633.571 13.9839C632.318 13.1318 630.563 12.6807 629.16 12.2797C627.506 11.8286 625.952 11.6281 624.298 11.5779C625.05 11.7784 625.852 12.1293 626.303 12.3298C628.007 13.0315 629.561 14.0841 631.365 14.4851C631.566 14.5352 632.017 14.7357 632.568 14.6355C632.919 14.5853 633.32 14.3347 633.571 13.9839Z"/><path fill="#33CB98" d="M597.332 17.7948C595.176 18.5466 591.718 13.6847 590.816 12.3815C589.964 11.1785 589.362 10.1259 589.011 9.42421C587.608 9.27384 586.204 9.07335 584.801 8.87286C584.3 8.82273 584.45 8.02076 584.951 8.12101C586.706 8.37162 588.46 8.57212 590.214 8.77261C591.367 6.51706 592.871 3.96078 594.826 2.30671C595.728 1.50474 597.783 0.552396 598.485 2.10622C599.186 3.66004 597.332 5.31411 596.329 6.11608C594.976 7.26891 593.322 8.37162 591.568 8.92298C593.272 9.02323 594.926 9.12347 596.63 9.22372C597.382 8.77261 598.234 8.52199 598.986 8.12101C599.938 7.56965 600.79 6.91805 601.592 6.21632C601.893 5.96571 602.294 6.36669 602.043 6.61731C601.041 7.51953 599.738 8.62224 598.334 9.27384C600.038 9.22372 601.793 9.1736 603.497 9.1736C603.948 7.87039 606.655 0.45215 610.163 0.251657C610.414 0.251657 611.166 0.201534 611.517 0.652643C612.319 1.70523 610.564 4.56226 609.311 5.76521C608.058 6.96817 606.705 8.3215 605.051 9.02323C606.003 8.92298 607.006 8.82273 607.958 8.67236C608.559 8.42175 609.211 8.02076 609.863 7.41928C611.066 6.26645 611.717 5.56472 612.118 5.01337C612.319 4.71263 612.77 5.06349 612.619 5.36423C612.068 6.36669 611.266 7.21879 610.364 7.92052C610.163 8.07088 609.963 8.22125 609.712 8.42175C612.77 7.92051 615.777 7.16867 618.835 6.31657C619.085 6.26645 619.186 6.56719 618.935 6.66743C617.331 7.36916 615.677 7.92052 613.973 8.37162C615.126 8.67236 616.228 9.07335 617.281 9.57458C617.531 9.72495 617.331 10.0758 617.08 9.97557C615.577 9.42421 614.073 9.02323 612.519 8.77261C610.815 9.1736 609.111 9.47434 607.407 9.67483C610.013 10.1259 612.67 10.9279 614.975 12.181C616.479 13.0331 618.384 14.8876 617.481 16.7422C616.529 18.7471 613.772 17.3437 612.569 16.3913C611.266 15.3889 610.113 14.1859 608.81 13.1333C607.507 12.0306 605.953 11.1284 604.7 9.97557C604.7 9.97557 604.7 9.97557 604.65 9.92544C602.695 9.97557 600.69 10.0758 598.735 10.1259C598.936 10.2262 599.186 10.3264 599.387 10.4267C600.389 10.9279 601.292 11.5795 602.144 12.3314C602.394 12.582 602.043 12.9328 601.793 12.7323C601.342 12.3314 600.74 11.9805 599.136 10.978C598.585 10.6773 597.983 10.3766 597.232 10.1761C597.031 10.1259 596.881 10.0758 596.73 10.0758C594.826 9.97557 592.971 9.8252 591.066 9.72495C592.871 10.4267 594.575 11.4793 595.978 12.6822C597.031 13.5343 599.086 15.7397 597.983 17.2434C597.783 17.5442 597.382 17.7447 597.332 17.7948ZM616.228 16.5918C616.329 16.5417 616.429 16.4415 616.479 16.3412C614.875 14.8375 613.02 13.8852 611.116 12.7825C609.462 11.8301 607.808 10.8778 606.053 10.1259C606.204 10.2763 606.404 10.4267 606.655 10.577C607.256 11.0282 608.71 12.1309 609.913 13.1835C612.569 15.3889 613.572 16.642 615.226 16.8425C615.476 16.7923 615.877 16.7923 616.228 16.5918ZM612.319 11.4793C609.762 10.6773 606.955 10.0257 605.803 9.72495C607.858 10.3766 609.762 11.4793 611.717 12.4316C613.572 13.3839 615.276 14.3864 616.83 15.7899C616.98 15.2385 616.88 14.637 616.529 14.0857C616.128 13.4341 615.476 12.9328 614.825 12.582C613.522 11.8803 612.469 11.5294 612.319 11.4793ZM611.166 1.30425C610.213 2.7077 609.061 3.86053 607.858 5.06349C606.705 6.1662 605.752 7.31904 604.8 8.57212C606.354 7.6699 607.457 6.76768 608.158 6.06595C608.66 5.56472 611.767 2.60745 611.166 1.30425ZM606.354 4.61238C605.803 5.5146 605.101 6.8178 604.499 8.57212C606.204 5.71509 609.061 3.81041 610.765 0.953383L610.815 0.903259C610.614 0.803013 610.464 0.803013 610.414 0.75289C608.86 0.552397 607.306 3.05856 606.354 4.61238ZM597.933 2.60745C597.933 2.60745 597.933 2.55733 597.883 2.55733C595.928 4.71263 593.673 6.86793 591.217 8.47187C592.219 8.12101 593.522 7.51953 594.926 6.51706C596.179 5.56472 597.081 4.61238 597.633 3.81041C597.983 3.30918 598.084 2.85807 597.933 2.60745ZM591.066 8.22125C592.119 7.26891 593.272 6.41682 594.274 5.41435C595.377 4.31164 596.43 3.25905 597.482 2.10622C597.282 2.00597 597.131 2.00597 597.031 1.95585C596.58 1.8556 595.728 1.95585 593.923 3.91065C593.121 4.863 592.069 6.26645 591.066 8.22125ZM594.224 11.9805C593.322 11.379 592.069 10.577 590.415 9.87532C592.871 11.8803 595.577 13.9353 597.482 16.4916C597.582 16.2911 597.633 16.1407 597.683 15.9402C597.833 14.5368 595.978 13.2336 594.224 11.9805ZM596.78 17.0931C596.881 17.0429 596.931 17.0429 597.031 16.9928C595.377 14.1859 592.47 12.1309 590.064 9.92544C590.966 11.6296 591.868 12.8827 592.57 13.7348C593.873 15.3889 595.577 17.4941 596.78 17.0931Z"/><path fill="#FF922C" d="M621.19 7.91736C621.792 7.5665 622.143 6.86477 622.193 6.16305C622.293 6.16305 622.393 6.11293 622.494 6.11293C622.794 6.0628 623.095 6.01268 623.446 6.01268C623.596 6.01268 623.646 5.76206 623.446 5.76206C623.045 5.71194 622.544 5.66182 622.143 5.76206C622.143 5.71194 622.143 5.66182 622.093 5.61169C622.193 5.56157 622.293 5.51145 622.393 5.46132C622.644 5.36108 622.945 5.26083 623.145 5.11046C623.296 5.01021 623.195 4.80972 623.045 4.80972C622.744 4.80972 622.443 4.90997 622.193 5.01021C622.093 5.06034 622.042 5.06034 621.942 5.11046C621.942 5.11046 621.942 5.06034 621.892 5.06034L621.942 5.01021C622.193 4.80972 622.443 4.55911 622.644 4.30849C622.694 4.20824 622.594 4.108 622.544 4.15812C622.243 4.30849 621.992 4.55911 621.742 4.7596C621.742 4.7596 621.692 4.7596 621.692 4.80972C621.491 4.55911 621.14 4.25837 620.589 4.15812C619.586 4.00775 618.383 4.65935 618.183 5.81219C618.033 6.81465 618.734 7.71687 619.536 8.01761C619.687 8.06773 620.438 8.31835 621.19 7.91736Z"/><path fill="#FF922C" d="M619.235 11.6294C619.085 11.3287 618.884 11.0279 618.734 10.7773C618.734 10.7272 618.784 10.7272 618.784 10.7272C618.834 10.7773 618.884 10.7773 618.935 10.8274C619.235 10.9778 619.536 11.1783 619.837 11.2786C619.937 11.3287 620.037 11.1783 619.937 11.0781C619.686 10.8776 619.386 10.6771 619.135 10.5267C619.035 10.4766 618.985 10.4265 618.884 10.3763V10.3262C618.935 10.3262 618.985 10.3262 619.035 10.3262C619.285 10.3262 619.536 10.3763 619.787 10.3262C619.887 10.3262 619.887 10.1758 619.787 10.1257C619.536 10.0255 619.285 10.0255 619.035 10.0255C618.985 10.0255 618.985 10.0255 618.935 10.0255C618.935 9.8751 618.985 9.72473 618.935 9.57436C618.834 8.97289 618.383 8.27116 617.631 8.12079C616.729 7.9203 615.927 8.62202 615.626 9.27362C615.576 9.42399 615.426 9.77486 615.526 10.1758C615.777 11.1282 617.08 11.7297 617.932 11.3287C618.133 11.2284 618.333 11.0781 618.433 10.9277C618.584 11.1783 618.734 11.4289 618.884 11.6795C619.085 11.88 619.285 11.7798 619.235 11.6294Z"/><path fill="#FF922C" d="M604.249 15.5369C604.249 15.1359 604.148 14.7349 603.998 14.384C604.048 14.3339 604.048 14.3339 604.098 14.2838C604.199 14.4341 604.75 15.1359 605.001 15.2361C605.051 15.2361 605.151 15.2862 605.201 15.2361C605.251 15.186 605.251 15.0356 605.251 15.0356C605.251 14.9354 605.151 14.8351 605.101 14.8351C604.95 14.6848 604.65 14.4341 604.249 14.1334C604.249 14.1334 604.299 14.0833 604.299 14.0332C604.299 13.983 604.349 13.983 604.349 13.9329C604.349 13.9329 604.399 13.9329 604.399 13.983C604.65 14.0833 604.9 14.2336 605.201 14.2838C605.301 14.2838 605.401 14.1835 605.301 14.0833C605.101 13.8828 604.8 13.7825 604.549 13.6823H604.499C604.549 13.5319 604.65 13.2813 604.65 12.9806C604.65 12.329 604.249 11.527 603.497 11.2263C602.845 10.9756 602.244 11.2764 602.043 11.3766C601.893 11.4267 600.89 11.928 600.79 12.8803C600.69 13.8327 601.442 14.8351 602.494 14.9354C602.895 14.9855 603.246 14.8852 603.547 14.6848C603.647 14.9855 603.697 15.2862 603.798 15.6371C603.948 15.7875 604.249 15.7875 604.249 15.5369Z"/><path fill="#FF922C" d="M615.476 4.51056C615.476 4.10957 615.276 3.75871 615.075 3.50809C615.426 3.40784 615.727 3.25747 616.078 3.15723C616.228 3.1071 616.178 2.90661 616.028 2.90661C615.627 2.95674 615.175 3.00686 614.774 3.15723C614.925 3.00686 615.025 2.85649 615.175 2.75624C615.376 2.55575 615.627 2.35526 615.827 2.10464C615.877 2.00439 615.827 1.85402 615.727 1.90415C615.476 2.00439 615.226 2.20489 614.975 2.40538C614.825 2.55575 614.624 2.70612 614.474 2.90661C614.424 2.85649 614.373 2.85649 614.323 2.85649C614.323 2.80637 614.323 2.80637 614.323 2.75624C614.373 2.50563 614.474 2.20489 614.524 1.95427C614.524 1.85402 614.373 1.75378 614.323 1.85402C614.173 2.10464 614.023 2.40538 613.922 2.75624C613.672 2.70612 613.471 2.656 613.221 2.70612C612.519 2.75624 611.817 3.1071 611.466 3.65846C610.965 4.56068 611.717 5.96413 612.77 6.31499C614.023 6.66586 615.476 5.61327 615.476 4.51056Z"/><path fill="#FF922C" d="M602.344 7.868C603.346 7.46702 603.647 6.11369 603.246 5.21147C603.547 5.11122 603.848 5.01098 604.148 4.91073C604.249 4.86061 604.249 4.71024 604.148 4.66011C603.948 4.50974 603.647 4.66011 603.397 4.71024C603.246 4.76036 603.146 4.76036 602.996 4.81048C602.945 4.76036 602.895 4.71024 602.845 4.66011C602.845 4.66011 602.845 4.66011 602.895 4.60999C603.196 4.35937 603.497 4.10876 603.798 3.85814C603.948 3.70777 603.798 3.45715 603.597 3.5574C603.246 3.80802 602.895 4.05863 602.595 4.30925C602.545 4.30925 602.545 4.35937 602.494 4.35937C602.444 4.35937 602.394 4.30925 602.344 4.30925C602.444 3.95839 602.595 3.60752 602.695 3.25666C602.745 3.10629 602.444 3.00605 602.394 3.15642C602.244 3.50728 602.144 3.85814 601.993 4.209C601.191 4.05863 600.289 4.50974 599.938 5.26159C599.637 5.96332 599.938 6.71517 599.938 6.81541C599.988 6.91566 600.038 7.06603 600.189 7.26652C600.69 7.81788 601.592 8.16874 602.344 7.868Z"/></g><defs><clipPath id="clip0"><rect width="61" height="18" fill="#fff" transform="translate(502.5)"/></clipPath><clipPath id="clip1"><rect width="61" height="18" fill="#fff" transform="matrix(-1 0 0 1 645.5 0)"/></clipPath></defs></svg>