<svg width="365" height="260" viewBox="0 0 365 260" fill="none" xmlns="http://www.w3.org/2000/svg">
<g opacity="0.46">
<g clip-path="url(#clip0_50_3322)">
<path d="M106.109 43.9371C118.185 43.5617 130.023 39.8613 142.134 40.3641L146.551 35.9476C131.241 34.2307 115.485 40.2408 99.9932 39.0191C98.7798 38.9233 98.0547 39.6141 97.7999 40.4974C97.3395 41.3055 97.355 42.3178 98.2971 43.1146C105.777 49.4395 111.1 57.7487 117.028 65.4708L117.509 64.9896L120.341 62.1577C115.639 56.0327 111.413 49.5457 106.109 43.9371Z" fill="#FFF4D8"/>
<path d="M63.3381 119.16L65.4628 117.036C57.745 111.106 49.4371 105.772 43.1155 98.2959C42.3201 97.3556 41.3087 97.3388 40.5015 97.7973C39.6168 98.0506 38.9242 98.7753 39.0202 99.9922C40.2429 115.49 34.1839 131.233 35.9244 146.574L40.352 142.146C39.8661 130.052 43.5641 118.187 43.9402 106.11C49.548 111.415 56.0321 115.637 62.1566 120.342L62.1588 120.34L63.3381 119.16Z" fill="#FFF4D8"/>
<path d="M22.6904 135.953C18.3513 135.764 15.0889 139.068 14.5441 143.139C14.45 143.608 14.4495 144.091 14.5425 144.56C15.0681 148.532 18.1644 151.77 22.39 151.77C26.7043 151.77 30.2853 148.15 30.3061 143.853C30.3269 139.643 26.8554 136.135 22.6904 135.953ZM19.272 143.853C19.4873 139.853 25.5089 139.822 25.5089 143.853C25.5082 147.889 19.4862 147.852 19.272 143.853Z" fill="#FFF4D8"/>
<path d="M144.569 14.5437C144.1 14.4496 143.617 14.449 143.148 14.5418C139.176 15.0674 135.938 18.1635 135.938 22.3893C135.938 26.7038 139.558 30.2845 143.854 30.3058C148.064 30.3264 151.573 26.8549 151.754 22.6899C151.944 18.351 148.64 15.0884 144.569 14.5437ZM143.854 25.5077C139.818 25.5077 139.856 19.4852 143.854 19.2706C147.854 19.4861 147.886 25.5077 143.854 25.5077Z" fill="#FFF4D8"/>
<path d="M4.03471 178.465L10.0472 172.453C5.14814 164.951 2.43692 156.259 3.46257 146.357C16.1193 126.465 36.8723 105.692 33.5813 81.1225C44.2575 95.1666 62.4238 99.2145 80.2673 102.232L85.813 96.687C74.6763 94.4547 63.4589 92.4386 53.2646 87.4357C38.8674 80.3708 28.8418 67.1496 25.1779 51.6657C27.4945 50.5431 29.734 49.2677 31.8817 47.8482C35.4039 55.1395 39.6133 62.7767 47.4423 66.0781C51.9368 67.9738 57.4525 68.034 61.6461 65.4251C63.9954 68.0328 66.5069 70.4896 69.1655 72.781C66.9961 76.6586 67.3451 81.5686 70.6782 84.9277C74.521 88.7999 81.0844 88.7999 84.9273 84.9277C88.7824 81.0426 88.8087 74.5606 84.9273 70.6788C81.5797 67.3312 76.6571 66.9987 72.7804 69.1664C70.4934 66.5121 68.0413 64.0047 65.4388 61.6589C68.0594 57.4786 67.9561 51.8961 66.0776 47.4422C62.7846 39.6328 55.1674 35.4192 47.8926 31.903C49.314 29.7535 50.5872 27.5097 51.7033 25.187C67.1704 28.8593 80.3776 38.8802 87.4368 53.265C92.4386 63.4582 94.4552 74.6766 96.6878 85.8135L102.233 80.2679C99.2152 62.4238 95.1677 44.2586 81.1231 33.5815C105.691 36.8705 126.467 16.118 146.357 3.46239C156.255 2.43802 164.947 5.14978 172.45 10.0506L178.465 4.03544C176.083 2.48452 173.575 1.13471 170.968 0L141.268 0C127.884 7.56864 115.953 17.9062 101.514 23.4293C85.804 29.4372 68.5629 27.5027 54.3401 18.7302C55.1705 16.2937 55.839 13.805 56.3412 11.2803C64.0042 13.9519 72.4127 16.3872 80.3 13.1701C84.8068 11.3316 88.7346 7.46991 89.8526 2.67034C93.3652 2.84804 96.8854 2.80891 100.393 2.55317C101.616 6.82367 105.251 10.0755 110.031 10.0755C115.504 10.0755 120.106 5.47153 120.106 0H115.307C115.307 6.8244 105.116 6.76345 104.752 0H82.3622C82.3622 5.89475 75.6787 8.63097 70.7704 8.75471C66.0882 8.87278 61.5228 7.22609 57.1637 5.68086C57.3516 3.79296 57.4487 1.89934 57.455 0H52.6907C52.7472 8.60734 50.6697 17.0945 46.6441 24.7027C37.4773 41.9202 19.2089 52.7171 0 52.7861V57.5196C1.90554 57.5089 3.80421 57.4046 5.69601 57.2066C7.14579 61.2957 8.67076 65.5436 8.73646 69.9192C8.81311 74.996 6.3468 82.3622 0 82.3622V104.752C6.76235 105.117 6.82002 115.307 0 115.307V120.105C5.32352 120.105 9.83675 115.758 10.0528 110.448C10.2547 105.505 6.96621 101.661 2.55317 100.393C2.80848 96.8917 2.84792 93.3778 2.67125 89.8714C7.471 88.7713 11.3477 84.7654 13.1701 80.2987C16.3832 72.4229 13.9538 64.0115 11.286 56.3569C13.8057 55.8422 16.289 55.1626 18.7198 54.3228C27.4993 68.5466 29.44 85.7985 23.4283 101.513C17.9071 115.951 7.56827 127.885 0 141.268V170.968C1.13441 173.575 2.48398 176.083 4.03471 178.465V178.465ZM74.0709 74.0709C79.0614 69.4683 86.3568 76.7124 81.5352 81.5352C76.7135 86.3579 69.4626 79.0672 74.0709 74.0709ZM44.5366 36.448C48.4348 38.3057 52.4952 40.231 55.618 43.2627C59.2598 46.7981 62.7285 53.7495 58.2388 58.239C54.0684 62.4095 47.4106 59.6133 43.8516 56.233C40.4798 53.0298 38.4157 48.6665 36.4387 44.5165C39.4044 42.1084 42.1177 39.405 44.5366 36.448Z" fill="#FFF4D8"/>
<path d="M36.0288 27.0054C41.9568 19.17 44.9547 9.59184 44.9642 0H40.1726C40.1587 1.56824 40.0531 3.13432 39.8565 4.69025C35.8325 3.94808 31.8088 3.20555 27.7854 2.46266C27.8639 1.64554 27.9074 0.824657 27.9158 0H23.1512C23.0711 9.03612 17.6835 17.7286 8.84194 21.385C6.03917 22.5453 3.03344 23.1361 0 23.1227L0 27.9225C0.821858 27.9291 1.64554 27.8987 2.47105 27.8313C3.21383 31.8565 3.95666 35.8817 4.69956 39.9069C3.1392 40.0807 1.56996 40.1622 0 40.1511L0 45.0164C13.9045 44.9364 27.4334 38.3666 36.0288 27.0054ZM26.9339 7.16769L38.976 9.39017C37.9715 13.4505 36.3587 17.3356 34.1923 20.9136L24.113 13.9746C25.3414 11.8358 26.2895 9.54776 26.9339 7.16696V7.16769ZM15.3816 37.1747C13.4461 37.9739 11.4497 38.6172 9.41171 39.0984C8.66954 35.0733 7.92671 31.0482 7.1832 27.0231C8.38727 26.7097 9.56849 26.3143 10.7186 25.8396C11.8571 25.3647 12.9621 24.8132 14.026 24.1887L20.9906 34.306C19.2011 35.411 17.3254 36.3701 15.3818 37.174L15.3816 37.1747ZM24.8957 31.5391C22.5752 28.1669 20.2545 24.7957 17.9335 21.4255C19.1881 20.359 20.3455 19.1833 21.3923 17.9122C24.7577 20.2288 28.1229 22.5455 31.4878 24.8622C29.5593 27.3378 27.3469 29.5786 24.8959 31.5384L24.8957 31.5391Z" fill="#FFF4D8"/>
<path d="M2.07156 18.696C4.17122 15.5775 3.92503 11.5968 3.30434 7.75643C3.98653 8.66236 4.66634 9.57085 5.37335 10.4558C7.03172 12.5325 9.0436 14.2126 11.7262 14.677C13.6172 15.0055 15.0048 13.6172 14.6772 11.7262C14.2129 9.04525 12.5283 7.03465 10.4562 5.37317C9.57322 4.66543 8.66528 3.98617 7.75953 3.30471C11.5995 3.92521 15.5778 4.17086 18.696 2.07156C19.0456 1.84939 19.3343 1.54368 19.5362 1.18203C19.7381 0.82037 19.8467 0.414144 19.8523 0L0.350765 0C0.343647 0.0461725 0.332515 0.09125 0.327952 0.137423C0.299117 0.172098 0.27521 0.210423 0.248017 0.246923C0.211517 0.274663 0.17155 0.298935 0.136692 0.328318C0.09125 0.333062 0.046355 0.34383 0 0.350765V19.8522C0.414127 19.8466 0.820342 19.7379 1.182 19.5361C1.54365 19.3343 1.84936 19.0455 2.07156 18.696Z" fill="#FFF4D8"/>
<path d="M218.424 35.9259L222.306 39.8075L222.852 40.3534C234.946 39.8672 246.811 43.5654 258.888 43.9417C253.584 49.5493 249.362 56.0334 244.656 62.1579L247.963 65.4644C253.892 57.7467 259.227 49.4388 266.703 43.1173C267.643 42.322 267.66 41.3106 267.201 40.5032C266.948 39.6182 266.223 38.9262 265.006 39.022C249.508 40.2429 233.765 34.186 218.424 35.9259Z" fill="#FFF4D8"/>
<path d="M325.945 143.443L329.052 146.55C330.769 131.24 324.759 115.485 325.981 99.9926C326.076 98.779 325.386 98.0539 324.502 97.7993C323.694 97.3387 322.682 97.3544 321.886 98.2963C315.561 105.776 307.251 111.099 299.529 117.027L302.842 120.34C308.967 115.638 315.453 111.412 321.062 106.107C321.438 118.184 325.139 130.021 324.635 142.133L324.649 142.146L325.945 143.443Z" fill="#FFF4D8"/>
<path d="M221.146 30.3054C225.356 30.3261 228.864 26.8546 229.046 22.6895C229.235 18.351 225.931 15.0884 221.86 14.5437C221.391 14.4496 220.908 14.449 220.439 14.5418C216.467 15.0674 213.229 18.1635 213.229 22.3893C213.229 26.7034 216.849 30.2841 221.146 30.3054ZM221.146 19.2706C225.146 19.4861 225.177 25.5077 221.146 25.5077C217.11 25.5077 217.147 19.4857 221.146 19.2713V19.2706Z" fill="#FFF4D8"/>
<path d="M350.458 143.147C349.932 139.175 346.836 135.938 342.61 135.938C338.296 135.938 334.715 139.557 334.694 143.854C334.673 148.064 338.144 151.572 342.309 151.754C346.648 151.943 349.911 148.639 350.456 144.568C350.55 144.099 350.55 143.616 350.457 143.147H350.458ZM339.492 143.854C339.492 139.818 345.514 139.856 345.729 143.854C345.513 147.853 339.492 147.885 339.492 143.854Z" fill="#FFF4D8"/>
<path d="M186.534 4.03471L191.213 8.7131L192.547 10.0472C200.049 5.14814 208.741 2.43692 218.643 3.46239C238.535 16.1191 259.307 36.8723 283.877 33.5811C269.833 44.2584 265.785 62.424 262.767 80.2673L268.313 85.813C270.545 74.6763 272.561 63.4591 277.564 53.2645C284.628 38.8696 297.845 28.846 313.326 25.1792C314.467 27.489 315.759 29.7212 317.193 31.861C309.89 35.3869 302.23 39.5976 298.922 47.4414C297.027 51.936 296.967 57.4516 299.576 61.6449C296.968 63.9944 294.511 66.5062 292.22 69.1653C288.342 66.9963 283.432 67.3451 280.073 70.6782C276.2 74.521 276.2 81.0844 280.073 84.9271C283.958 88.7826 290.44 88.8087 294.321 84.9271C297.669 81.5795 298.002 76.6571 295.834 72.7805C298.488 70.4934 300.996 68.0414 303.341 65.4389C307.521 68.0594 313.104 67.9557 317.558 66.0776C325.379 62.7796 329.593 55.1444 333.113 47.8599C335.253 49.3029 337.489 50.5991 339.804 51.7397C336.125 67.1912 326.108 80.3829 311.736 87.4367C301.543 92.4386 290.324 94.4553 279.187 96.6876L284.733 102.233C302.577 99.2152 320.742 95.1676 331.419 81.1229C328.129 105.691 348.882 126.468 361.537 146.357C362.562 156.256 359.851 164.948 354.95 172.451L360.965 178.466C362.516 176.083 363.866 173.575 365 170.968V141.268C357.431 127.884 347.094 115.952 341.571 101.514C335.574 85.8347 337.492 68.631 346.219 54.4244C346.887 54.6556 347.56 54.8755 348.239 55.0842C350.03 55.627 351.848 56.0794 353.685 56.4394C351.027 64.0758 348.626 72.4465 351.83 80.2989C353.668 84.8067 357.53 88.7337 362.329 89.8517C362.152 93.3643 362.191 96.8846 362.447 100.392C358.176 101.615 354.924 105.25 354.924 110.03C354.924 115.503 359.528 120.105 365 120.105V115.307C358.176 115.307 358.236 105.116 365 104.752V82.3623C359.105 82.3623 356.369 75.6786 356.245 70.7704C356.128 66.1245 357.748 61.5934 359.284 57.2654C361.183 57.4467 363.091 57.5319 365 57.5209V52.7861C362.269 52.7969 359.542 52.5894 356.845 52.1656C335.569 48.8158 318.105 32.3547 313.453 11.3404C312.627 7.61705 312.215 3.8138 312.226 0L307.435 0C307.432 1.47369 307.485 2.9565 307.603 4.44479C307.636 4.87129 307.685 5.29451 307.729 5.719C303.659 7.16075 299.433 8.67094 295.081 8.73664C290.004 8.81293 282.638 6.3468 282.638 0H260.248C259.883 6.76217 249.693 6.82003 249.693 0H244.895C244.895 5.32353 249.242 9.83675 254.552 10.0528C259.495 10.2547 263.339 6.96621 264.606 2.55318C268.108 2.80848 271.622 2.84792 275.128 2.67125C276.228 7.46991 280.234 11.3479 284.701 13.1701C292.555 16.3743 300.942 13.9673 308.579 11.3086C309.096 13.8309 309.783 16.3154 310.635 18.7451C296.419 27.5028 279.186 29.4343 263.486 23.4297C249.049 17.9067 237.115 7.56809 223.732 0H194.031C191.425 1.13441 188.917 2.48392 186.534 4.03453L186.534 4.03471ZM283.465 81.5346C278.645 76.7142 285.932 69.4626 290.93 74.0704C295.532 79.0614 288.288 86.3568 283.465 81.5346ZM328.583 44.4716C326.716 48.3897 324.786 52.4779 321.737 55.618C318.202 59.2598 311.251 62.7285 306.761 58.239C302.59 54.0684 305.387 47.4106 308.767 43.8518C311.989 40.4603 316.385 38.3914 320.557 36.404C322.964 39.3472 325.652 42.0492 328.583 44.4716Z" fill="#FFF4D8"/>
<path d="M351.896 43.1096C356.143 44.4027 360.561 45.0456 365 45.0164V40.1511C363.433 40.1403 361.867 40.0378 360.312 39.8443C361.053 35.8275 361.795 31.8105 362.536 27.7935C363.353 27.8723 364.175 27.9149 365 27.9212V23.1227C355.931 23.0862 347.276 17.6928 343.615 8.84139C342.443 6.04131 341.84 3.03564 341.842 0L337.041 0C337.036 0.82271 337.068 1.64828 337.137 2.47671C333.112 3.21985 329.086 3.96274 325.061 4.7054C324.881 3.14347 324.796 1.57216 324.806 0L319.967 0C319.968 1.06744 320.006 2.14072 320.087 3.21912C321.463 21.6191 334.206 37.7116 351.896 43.1096ZM351.028 24.1099C353.166 25.3389 355.453 26.2874 357.833 26.9321C357.092 30.9478 356.351 34.9633 355.61 38.9787C351.546 37.9806 347.658 36.3707 344.078 34.2043L351.028 24.1099ZM343.587 17.9255C344.653 19.1777 345.828 20.3335 347.097 21.3795C344.778 24.7497 342.458 28.1198 340.138 31.49C337.661 29.5625 335.419 27.3502 333.459 24.8988C336.835 22.5744 340.211 20.25 343.587 17.9255ZM337.958 7.18703C338.305 8.49049 338.748 9.76673 339.282 11.0055C339.732 12.0411 340.246 13.0481 340.82 14.0207L330.697 20.9897C329.591 19.2003 328.631 17.325 327.826 15.3818C327.025 13.4461 326.376 11.4508 325.885 9.41408L337.958 7.18703Z" fill="#FFF4D8"/>
<path d="M346.304 2.07156C349.422 4.17122 353.403 3.92503 357.244 3.30416C356.337 3.98671 355.429 4.66634 354.544 5.37317C352.468 7.03154 350.788 9.04324 350.323 11.7262C349.994 13.6172 351.383 15.0046 353.274 14.677C355.955 14.2129 357.966 12.5283 359.627 10.4558C360.334 9.57304 361.014 8.6651 361.695 7.75954C361.075 11.5997 360.829 15.5778 362.929 18.696C363.151 19.0455 363.456 19.3343 363.818 19.5361C364.18 19.7379 364.586 19.8466 365 19.8522V0.350765C364.954 0.343465 364.909 0.332515 364.863 0.327953C364.828 0.299118 364.79 0.27521 364.753 0.248018C364.725 0.211517 364.701 0.171733 364.672 0.13651C364.667 0.09125 364.656 0.0461725 364.649 0.0009125V0H345.148C345.153 0.414144 345.262 0.82037 345.464 1.18203C345.666 1.54368 345.954 1.84939 346.304 2.07156Z" fill="#FFF4D8"/>
<path d="M63.3381 119.161L62.1585 120.341C66.8611 126.466 71.0871 132.952 76.3915 138.561C64.3147 138.936 52.4774 142.637 40.366 142.134L35.9495 146.551C51.259 148.268 67.0148 142.257 82.5069 143.479C83.7205 143.575 84.4454 142.884 84.7003 142.001C85.1608 141.193 85.1452 140.18 84.2032 139.384C76.7232 133.059 71.4006 124.749 65.4723 117.027L63.3381 119.161Z" fill="#FFF4D8"/>
<path d="M288.609 226.437C300.685 226.062 312.523 222.361 324.634 222.864L329.051 218.448C313.741 216.731 297.985 222.741 282.493 221.519C281.28 221.423 280.554 222.114 280.3 222.997C279.839 223.805 279.855 224.818 280.797 225.615C288.277 231.939 293.6 240.249 299.528 247.971L300.245 247.253L302.84 244.658C298.139 238.533 293.913 232.046 288.609 226.437Z" fill="#FFF4D8"/>
<path d="M82.5059 221.522C67.0084 222.744 51.2652 216.686 35.9244 218.426L39.9737 222.476L40.3517 222.853C52.4463 222.367 64.3112 226.065 76.3883 226.442C71.084 232.049 66.8618 238.534 62.1563 244.658L65.4628 247.965C71.3924 240.247 76.7269 231.939 84.2026 225.617C85.1432 224.822 85.1598 223.811 84.7012 223.003C84.4477 222.118 83.7228 221.426 82.5059 221.522Z" fill="#FFF4D8"/>
<path d="M329.076 146.578L325.945 143.447L324.649 142.151C312.555 142.637 300.69 138.939 288.613 138.563C293.917 132.955 298.139 126.471 302.845 120.347L299.537 117.039C293.608 124.757 288.274 133.065 280.798 139.386C279.857 140.182 279.841 141.193 280.299 142C280.552 142.885 281.277 143.577 282.494 143.482C297.992 142.261 313.736 148.318 329.076 146.578Z" fill="#FFF4D8"/>
<path d="M218.448 35.9492C216.732 51.2588 222.741 67.0144 221.52 82.5066C221.424 83.72 222.115 84.4449 222.998 84.6999C223.806 85.1605 224.818 85.1448 225.615 84.2029C231.94 76.723 240.249 71.4 247.971 65.4719L244.658 62.16C238.534 66.8625 232.047 71.0883 226.438 76.3929C226.063 64.3161 222.362 52.479 222.865 40.3674L222.852 40.3537L222.306 39.8078L218.448 35.9492Z" fill="#FFF4D8"/>
<path d="M142.149 40.3532C142.635 52.4479 138.937 64.3126 138.561 76.3895C132.953 71.0851 126.469 66.863 120.345 62.1574L120.342 62.1598L117.51 64.9916L117.037 65.4641C124.755 71.3936 133.063 76.728 139.385 84.204C140.179 85.1442 141.191 85.161 141.998 84.7025C142.883 84.4492 143.575 83.7245 143.48 82.5076C142.257 67.0099 148.316 51.2667 146.576 35.9258L142.149 40.3532Z" fill="#FFF4D8"/>
<path d="M167.957 37.9405C167.432 33.9684 164.336 30.7305 160.11 30.7305C155.796 30.7305 152.215 34.3504 152.194 38.647C152.173 42.8572 155.644 46.3656 159.809 46.5472C164.149 46.7363 167.411 43.4319 167.956 39.3611C168.05 38.8923 168.05 38.4095 167.957 37.9405H167.957ZM156.991 38.647C156.991 34.611 163.014 34.6487 163.229 38.647C163.013 42.6466 156.991 42.6786 156.991 38.647Z" fill="#FFF4D8"/>
<path d="M46.5461 205.19C46.7353 200.851 43.4312 197.588 39.3602 197.044C38.8912 196.95 38.4084 196.949 37.9392 197.042C33.9673 197.567 30.7294 200.664 30.7294 204.889C30.7294 209.204 34.3494 212.784 38.6459 212.806C42.8561 212.826 46.3643 209.355 46.5461 205.19ZM38.6459 201.771C42.6457 201.987 42.6773 208.008 38.6459 208.008C34.6099 208.008 34.6475 201.986 38.6459 201.771Z" fill="#FFF4D8"/>
<path d="M326.354 152.195C322.144 152.175 318.636 155.646 318.454 159.811C318.265 164.15 321.569 167.412 325.64 167.957C326.109 168.051 326.592 168.052 327.061 167.959C331.033 167.433 334.271 164.337 334.271 160.112C334.271 155.797 330.651 152.217 326.354 152.195ZM326.354 163.23C322.354 163.015 322.323 156.993 326.354 156.993C330.39 156.993 330.352 163.015 326.354 163.23V163.23Z" fill="#FFF4D8"/>
<path d="M197.043 39.3526C197.568 43.3245 200.664 46.5624 204.89 46.5624C209.204 46.5624 212.785 42.9421 212.806 38.6461C212.827 34.4358 209.355 30.9274 205.19 30.746C200.852 30.5566 197.589 33.8609 197.044 37.932C196.95 38.4008 196.95 38.8835 197.043 39.3526H197.043ZM208.008 38.6461C208.008 42.6821 201.986 42.6443 201.771 38.6461C201.987 34.6461 208.008 34.6145 208.008 38.6461Z" fill="#FFF4D8"/>
<path d="M38.6458 152.195C34.4357 152.175 30.9272 155.646 30.7458 159.811C30.5565 164.15 33.8609 167.412 37.9317 167.957C38.4005 168.051 38.8833 168.052 39.3523 167.959C43.3244 167.433 46.5622 164.337 46.5622 160.112C46.5622 155.797 42.9423 152.217 38.6458 152.195ZM38.6458 163.23C34.646 163.015 34.6142 156.993 38.6458 156.993C42.6818 156.993 42.6441 163.015 38.6458 163.23V163.23Z" fill="#FFF4D8"/>
<path d="M327.069 197.044C326.6 196.95 326.117 196.949 325.648 197.042C321.676 197.567 318.438 200.664 318.438 204.889C318.438 209.204 322.058 212.784 326.354 212.806C330.564 212.826 334.073 209.355 334.254 205.19C334.444 200.85 331.14 197.588 327.069 197.044ZM326.354 208.008C322.318 208.008 322.356 201.985 326.354 201.771C330.354 201.985 330.386 208.007 326.354 208.007V208.008Z" fill="#FFF4D8"/>
<path d="M192.547 354.953C187.648 347.452 184.937 338.76 185.963 328.857C198.619 308.966 219.372 288.193 216.081 263.623C226.758 277.667 244.924 281.715 262.767 284.733L268.313 279.188C257.176 276.955 245.959 274.939 235.765 269.937C221.367 262.872 211.342 249.65 207.677 234.166C209.994 233.043 212.233 231.768 214.381 230.348C217.903 237.639 222.112 245.277 229.942 248.578C234.436 250.474 239.952 250.534 244.145 247.925C246.495 250.533 249.007 252.99 251.665 255.281C249.496 259.159 249.845 264.069 253.178 267.428C257.021 271.3 263.584 271.3 267.427 267.428C271.283 263.543 271.309 257.061 267.427 253.179C264.08 249.831 259.157 249.499 255.281 251.667C252.993 249.012 250.541 246.505 247.939 244.159C250.559 239.979 250.456 234.395 248.577 229.942C245.284 222.133 237.667 217.919 230.392 214.403C231.814 212.254 233.087 210.01 234.203 207.687C249.67 211.359 262.877 221.38 269.937 235.765C274.939 245.958 276.955 257.177 279.188 268.314L284.733 262.768C281.715 244.924 277.668 226.759 263.623 216.082C288.192 219.371 308.968 198.619 328.857 185.963C338.756 184.939 347.448 187.65 354.951 192.551L360.966 186.536C358.583 184.985 356.075 183.635 353.468 182.501C356.075 181.366 358.583 180.017 360.965 178.466L354.953 172.453C347.452 177.353 338.759 180.064 328.857 179.038C308.965 166.382 288.193 145.628 263.623 148.919C277.667 138.243 281.715 120.077 284.733 102.233L279.187 96.6877C276.955 107.824 274.939 119.042 269.936 129.236C262.886 143.603 249.705 153.616 234.262 157.299C233.327 155.365 232.28 153.487 231.126 151.675C230.892 151.307 230.643 150.954 230.402 150.594C237.677 147.077 245.284 142.869 248.577 135.059C250.473 130.565 250.533 125.049 247.924 120.855C250.532 118.506 252.989 115.994 255.28 113.335C259.158 115.504 264.068 115.155 267.427 111.822C271.3 107.98 271.3 101.416 267.427 97.5735C263.542 93.718 257.06 93.6919 253.178 97.5735C249.831 100.921 249.498 105.844 251.666 109.72C249.012 112.007 246.504 114.459 244.159 117.062C239.979 114.441 234.396 114.545 229.942 116.423C222.101 119.729 217.886 127.395 214.361 134.696C212.214 133.285 209.975 132.02 207.659 130.909C211.309 115.393 221.347 102.14 235.764 95.0656C245.957 90.0637 257.176 88.047 268.313 85.8145L262.767 80.2689C244.923 83.2869 226.758 87.3346 216.081 101.379C219.37 76.8105 198.618 56.0343 185.962 36.1448C184.938 26.2463 187.649 17.5544 192.549 10.0515L191.213 8.71464L186.534 4.03625C184.984 6.41859 183.634 8.92593 182.5 11.5323C181.366 8.92557 180.016 6.41787 178.466 4.03516L172.453 10.0478C177.352 17.5495 180.063 26.2412 179.038 36.1438C166.381 56.0353 145.628 76.8081 148.919 101.378C138.243 87.3338 120.076 83.286 102.233 80.2682L96.6871 85.8136C107.824 88.0459 119.041 90.062 129.235 95.0647C143.619 102.123 153.639 115.326 157.312 130.792C155.006 131.948 152.778 133.253 150.642 134.7C147.116 127.395 142.904 119.732 135.059 116.423C130.564 114.528 125.049 114.467 120.855 117.076C118.505 114.468 115.994 112.011 113.335 109.72C115.504 105.842 115.155 100.932 111.821 97.573C107.979 93.7003 101.416 93.7003 97.573 97.573C93.7177 101.458 93.6914 107.94 97.573 111.822C100.92 115.169 105.843 115.502 109.72 113.334C112.007 115.988 114.459 118.496 117.061 120.842C114.44 125.022 114.544 130.605 116.422 135.059C119.735 142.912 127.42 147.129 134.732 150.658C133.298 152.795 132.007 155.024 130.868 157.331C115.37 153.673 102.134 143.643 95.0643 129.236C90.0624 119.043 88.0457 107.825 85.8134 96.6877L80.2678 102.233C83.2856 120.077 87.3331 138.243 101.378 148.921C76.8092 145.631 56.0327 166.383 36.1433 179.039C26.2449 180.063 17.5529 177.352 10.0498 172.452L10.0473 172.454L4.03479 178.466C6.41746 180.017 8.92509 181.366 11.5317 182.501C8.92494 183.635 6.41718 184.985 4.03442 186.535L8.63342 191.134L10.0462 192.547C17.548 187.648 26.2397 184.937 36.142 185.962C56.0345 198.619 76.8063 219.372 101.376 216.081C87.3325 226.758 83.2845 244.924 80.2663 262.767L85.812 268.313C88.0443 257.176 90.0602 245.959 95.0629 235.764C102.127 221.369 115.344 211.346 130.825 207.679C131.966 209.989 133.258 212.221 134.693 214.361C127.389 217.887 119.73 222.097 116.421 229.941C114.526 234.436 114.466 239.951 117.075 244.145C114.467 246.494 112.01 249.006 109.719 251.665C105.841 249.496 100.931 249.845 97.5719 253.178C93.6992 257.021 93.6992 263.584 97.5719 267.427C101.457 271.282 107.939 271.308 111.82 267.427C115.168 264.079 115.501 259.157 113.333 255.28C115.988 252.993 118.495 250.541 120.841 247.939C125.02 250.559 130.603 250.456 135.057 248.577C142.878 245.279 147.093 237.644 150.612 230.36C152.752 231.803 154.988 233.099 157.303 234.239C153.624 249.691 143.608 262.883 129.235 269.936C119.042 274.938 107.823 276.955 96.6864 279.187L102.232 284.733C120.076 281.715 138.241 277.667 148.918 263.623C145.628 288.191 166.381 308.967 179.037 328.857C180.061 338.756 177.35 347.447 172.449 354.951L178.464 360.966C180.015 358.583 181.365 356.076 182.5 353.469C183.634 356.076 184.984 358.583 186.535 360.966L192.547 354.953ZM256.571 256.572C261.561 251.969 268.857 259.213 264.035 264.036C259.214 268.858 251.963 261.568 256.571 256.572ZM264.035 100.966C268.855 105.786 261.568 113.038 256.571 108.43C251.968 103.439 259.213 96.1438 264.035 100.966H264.035ZM108.43 108.43C103.439 113.033 96.1438 105.789 100.965 100.966C105.787 96.1431 113.037 103.433 108.429 108.43L108.43 108.43ZM100.965 264.036C96.1453 259.216 103.433 251.964 108.43 256.572C113.032 261.562 105.788 268.857 100.965 264.035V264.036ZM238.118 225.764C241.76 229.3 245.229 236.251 240.739 240.74C236.568 244.911 229.911 242.115 226.352 238.735C222.98 235.531 220.916 231.168 218.939 227.018C221.904 224.61 224.618 221.906 227.037 218.95C230.936 220.806 234.995 222.732 238.118 225.763V225.764ZM239.695 176.81C243.788 175.359 248.039 173.831 252.419 173.765C257.496 173.688 264.862 176.155 264.862 182.501C264.862 188.396 258.179 191.132 253.27 191.256C248.588 191.374 244.023 189.727 239.664 188.182C240.042 184.401 240.053 180.592 239.696 176.809L239.695 176.81ZM262.8 195.671C267.307 193.833 271.234 189.971 272.352 185.172C275.865 185.349 279.385 185.31 282.893 185.055C284.116 189.325 287.751 192.577 292.53 192.577C298.004 192.577 302.606 187.973 302.606 182.501C302.606 177.178 298.259 172.666 292.949 172.449C288.006 172.246 284.162 175.535 282.894 179.948C279.393 179.693 275.879 179.653 272.372 179.83C271.272 175.031 267.266 171.154 262.8 169.331C254.932 166.121 246.53 168.542 238.882 171.207C238.392 168.674 237.732 166.177 236.905 163.733C251.113 154.996 268.33 153.073 284.014 159.072C298.451 164.594 310.385 174.933 323.768 182.501C310.384 190.07 298.453 200.408 284.014 205.931C268.305 211.939 251.063 210.003 236.841 201.232C237.671 198.795 238.34 196.306 238.842 193.782C246.504 196.453 254.913 198.888 262.799 195.671L262.8 195.671ZM287.252 182.501C287.617 175.738 297.807 175.68 297.807 182.501C297.807 189.325 287.616 189.264 287.252 182.501ZM225.763 126.883C229.299 123.241 236.249 119.772 240.739 124.262C244.91 128.432 242.114 135.09 238.733 138.649C235.533 142.017 231.175 144.081 227.03 146.056C224.604 143.111 221.888 140.419 218.921 138.02C220.787 134.105 222.717 130.02 225.763 126.883ZM159.071 80.987C164.593 66.55 174.932 54.6158 182.5 41.2327C190.069 54.617 200.406 66.548 205.929 80.987C211.953 96.7338 209.994 114.021 201.169 128.263C198.739 127.438 196.258 126.773 193.741 126.273C196.428 118.58 198.904 110.127 195.671 102.202C193.832 97.6949 189.971 93.7669 185.171 92.6491C185.349 89.1365 185.31 85.6163 185.054 82.1085C189.324 80.8857 192.576 77.2502 192.576 72.4712C192.576 66.9978 187.972 62.3957 182.5 62.3957C177.177 62.3957 172.665 66.7429 172.448 72.0529C172.246 76.9959 175.534 80.8397 179.947 82.107C179.692 85.6086 179.653 89.1226 179.829 92.6291C175.029 93.7292 171.152 97.7352 169.33 102.202C166.112 110.091 168.555 118.517 171.228 126.182C168.695 126.665 166.197 127.313 163.749 128.124C154.997 113.91 153.067 96.6818 159.071 80.987ZM191.255 111.73C191.374 116.445 189.703 121.043 188.148 125.431C184.388 125.055 180.601 125.042 176.839 125.392C175.379 121.273 173.83 116.992 173.764 112.581C173.687 107.504 176.153 100.138 182.5 100.138C188.395 100.138 191.131 106.822 191.255 111.73ZM182.5 67.1933C189.324 67.1933 189.264 77.3843 182.5 77.7486C175.738 77.3843 175.68 67.1933 182.5 67.1933ZM126.882 139.238C123.24 135.702 119.772 128.751 124.261 124.262C128.432 120.091 135.089 122.887 138.648 126.268C142.051 129.5 144.122 133.914 146.115 138.097C143.199 140.512 140.52 143.2 138.116 146.125C134.172 144.245 130.046 142.309 126.882 139.238ZM125.103 186.945C125.136 187.372 125.185 187.795 125.229 188.219C121.159 189.662 116.933 191.172 112.582 191.237C107.505 191.314 100.139 188.847 100.139 182.501C100.139 176.606 106.822 173.87 111.731 173.746C116.375 173.629 120.905 175.248 125.232 176.783C124.881 180.159 124.838 183.561 125.103 186.945ZM102.201 169.33C97.6943 171.169 93.7664 175.03 92.6484 179.83C89.1358 179.653 85.6155 179.692 82.1077 179.947C80.885 175.677 77.2496 172.425 72.4705 172.425C66.9969 172.425 62.395 177.029 62.395 182.501C62.395 187.824 66.7422 192.336 72.0522 192.553C76.995 192.755 80.839 189.467 82.1065 185.054C85.6081 185.309 89.1221 185.349 92.6285 185.172C93.7284 189.971 97.7343 193.848 102.201 195.671C110.055 198.875 118.442 196.468 126.079 193.809C126.596 196.332 127.283 198.816 128.135 201.246C113.919 210.003 96.6857 211.935 80.9863 205.93C66.5494 200.408 54.615 190.069 41.2325 182.501C54.6165 174.932 66.5474 164.595 80.9863 159.072C96.6933 153.063 113.931 154.998 128.152 163.766C127.294 166.192 126.602 168.673 126.08 171.193C118.439 168.532 110.06 166.124 102.201 169.33ZM77.748 182.501C77.383 189.263 67.1927 189.321 67.1927 182.501C67.1927 175.676 77.3839 175.737 77.748 182.501ZM139.237 238.119C135.702 241.76 128.751 245.229 124.261 240.74C120.091 236.569 122.887 229.911 126.267 226.352C129.489 222.961 133.885 220.892 138.057 218.905C140.464 221.848 143.152 224.55 146.083 226.972C144.216 230.89 142.286 234.979 139.237 238.119ZM130.953 193.841C125.399 168.753 139.151 144.024 162.225 133.753C182.439 125.914 205.395 130.173 220.592 145.988C236.158 162.187 239.715 187.348 229.144 207.203C218.685 226.848 196.379 238.134 174.345 234.666C153.07 231.316 135.606 214.855 130.953 193.841ZM173.745 253.271C173.628 248.625 175.248 244.094 176.784 239.766C180.58 240.126 184.403 240.106 188.196 239.708C189.646 243.797 191.171 248.045 191.237 252.421C191.313 257.498 188.847 264.864 182.5 264.864C176.605 264.863 173.869 258.179 173.745 253.271ZM182.5 297.808C175.676 297.808 175.737 287.617 182.5 287.253C189.262 287.617 189.32 297.808 182.5 297.808ZM159.071 284.014C153.074 268.335 154.992 251.132 163.72 236.925C164.387 237.157 165.06 237.377 165.739 237.585C167.53 238.128 169.348 238.58 171.185 238.94C168.527 246.576 166.127 254.947 169.33 262.8C171.168 267.307 175.03 271.234 179.829 272.352C179.652 275.865 179.691 279.385 179.947 282.893C175.676 284.117 172.424 287.751 172.424 292.53C172.424 298.004 177.029 302.606 182.5 302.606C187.823 302.606 192.336 298.258 192.553 292.949C192.755 288.006 189.466 284.162 185.053 282.894C185.308 279.393 185.348 275.879 185.171 272.372C189.971 271.272 193.848 267.266 195.67 262.8C198.883 254.924 196.454 246.512 193.786 238.858C196.306 238.343 198.789 237.663 201.22 236.824C209.999 251.047 211.94 268.299 205.928 284.014C200.406 298.451 190.067 310.385 182.499 323.769C174.931 310.384 164.594 298.453 159.071 284.014Z" fill="#FFF4D8"/>
<path d="M218.529 209.505C229.613 194.854 230.459 174.11 220.663 158.575C208.989 140.063 185.759 132.956 165.538 140.775C165.36 140.884 165.167 140.965 164.965 141.017C147.506 148.739 136.148 166.48 137.587 185.718C138.963 204.118 151.706 220.211 169.397 225.609C187.396 231.101 207.227 224.443 218.529 209.505ZM197.882 219.673C195.946 220.473 193.95 221.116 191.912 221.597C191.17 217.572 190.427 213.547 189.683 209.522C192.086 208.901 194.389 207.947 196.526 206.687L203.491 216.805C201.701 217.91 199.826 218.869 197.882 219.673ZM161.115 191.341C156.096 179.206 162.178 166.51 173.62 161.076C184.945 157.025 197.657 160.95 203.254 172.129C209.225 184.056 203.604 198.813 191.342 203.884C179.604 208.738 165.969 203.078 161.115 191.341ZM207.396 214.038C205.075 210.666 202.755 207.295 200.434 203.924C201.688 202.857 202.846 201.682 203.892 200.411L213.988 207.361C212.059 209.837 209.847 212.078 207.396 214.038ZM216.692 203.412L206.613 196.474C207.841 194.335 208.789 192.047 209.434 189.667L221.476 191.889C220.472 195.949 218.859 199.834 216.692 203.412ZM222.357 187.19C218.333 186.447 214.309 185.704 210.285 184.962C210.445 183.322 210.459 181.671 210.328 180.029C214.365 179.284 218.401 178.539 222.437 177.794C222.778 180.918 222.751 184.072 222.357 187.19ZM216.837 161.486C217.638 162.787 218.364 164.132 219.012 165.515C220.142 167.94 221.019 170.476 221.63 173.081L209.521 175.316C208.91 172.911 207.953 170.609 206.679 168.48L216.837 161.486ZM214.093 157.566C210.709 159.895 207.326 162.225 203.941 164.554C202.879 163.292 201.703 162.13 200.428 161.082L207.396 150.961C209.886 152.885 212.135 155.102 214.093 157.566ZM191.873 143.613C195.945 144.561 199.847 146.13 203.442 148.265C201.117 151.643 198.792 155.02 196.467 158.398C194.322 157.194 192.031 156.274 189.649 155.66C190.391 151.645 191.132 147.629 191.873 143.613ZM187.162 142.794C186.421 146.809 185.68 150.824 184.939 154.839C183.314 154.688 181.68 154.673 180.052 154.794C179.311 150.777 178.57 146.761 177.829 142.745C180.932 142.418 184.062 142.435 187.162 142.794ZM167.067 145.31C169.034 144.564 171.053 143.964 173.108 143.512C173.85 147.529 174.591 151.546 175.332 155.562C174.226 155.825 173.136 156.151 172.068 156.539C171.961 156.583 171.857 156.633 171.757 156.691C171.668 156.716 171.581 156.747 171.495 156.782C170.472 157.255 169.477 157.786 168.515 158.372C166.202 155.011 163.888 151.651 161.575 148.29C163.331 147.165 165.166 146.169 167.067 145.31ZM157.695 151.092C160.008 154.453 162.322 157.814 164.636 161.175C163.397 162.237 162.249 163.401 161.204 164.654C157.849 162.345 154.494 160.035 151.139 157.726C153.074 155.28 155.272 153.056 157.695 151.092ZM148.387 161.641C151.738 163.948 155.089 166.255 158.441 168.561C157.193 170.685 156.226 172.961 155.564 175.332C151.547 174.591 147.53 173.85 143.513 173.108C144.541 169.059 146.185 165.191 148.387 161.641L148.387 161.641ZM142.619 177.805C146.637 178.546 150.655 179.288 154.672 180.029C154.509 181.674 154.498 183.33 154.638 184.976C150.612 185.719 146.587 186.462 142.561 187.205C142.201 184.081 142.221 180.924 142.619 177.805L142.619 177.805ZM148.197 203.489C147.091 201.7 146.131 199.825 145.326 197.881C144.525 195.946 143.876 193.95 143.385 191.914L155.458 189.686C156.093 192.084 157.056 194.384 158.32 196.519L148.197 203.489ZM150.958 207.398L161.087 200.425C162.153 201.677 163.328 202.833 164.598 203.879C162.278 207.249 159.958 210.619 157.638 213.99C155.161 212.062 152.918 209.849 150.958 207.398L150.958 207.398ZM173.11 221.478C169.047 220.48 165.158 218.87 161.579 216.704C163.895 213.339 166.211 209.974 168.528 206.609C170.666 207.838 172.953 208.787 175.333 209.432C174.592 213.447 173.851 217.463 173.11 221.478L173.11 221.478ZM180.036 210.293C181.677 210.452 183.328 210.465 184.971 210.33C185.714 214.356 186.457 218.381 187.2 222.406C184.079 222.753 180.928 222.732 177.812 222.344C178.553 218.327 179.295 214.31 180.036 210.293V210.293Z" fill="#FFF4D8"/>
<path d="M192.956 187.873C192.073 187.166 191.165 186.486 190.259 185.805C194.099 186.426 198.078 186.671 201.196 184.572C202.738 183.534 202.738 181.467 201.196 180.429C198.078 178.33 194.097 178.576 190.257 179.196C191.162 178.514 192.071 177.834 192.956 177.127C195.032 175.469 196.712 173.457 197.177 170.774C197.506 168.883 196.117 167.496 194.226 167.824C191.545 168.288 189.534 169.972 187.873 172.045C187.166 172.927 186.486 173.836 185.805 174.741C186.425 170.901 186.671 166.922 184.571 163.805C183.533 162.263 181.467 162.263 180.429 163.805C178.33 166.923 178.575 170.904 179.196 174.744C178.514 173.838 177.834 172.93 177.127 172.045C175.469 169.968 173.457 168.288 170.774 167.824C168.883 167.495 167.496 168.883 167.823 170.774C168.287 173.455 169.972 175.466 172.044 177.127C172.927 177.835 173.835 178.514 174.741 179.196C170.901 178.575 166.922 178.33 163.804 180.429C162.263 181.467 162.263 183.534 163.804 184.572C166.923 186.671 170.904 186.425 174.744 185.804C173.838 186.487 172.929 187.166 172.044 187.873C169.968 189.532 168.288 191.544 167.823 194.226C167.496 196.118 168.883 197.505 170.774 197.177C173.455 196.713 175.466 195.029 177.127 192.956C177.835 192.073 178.514 191.165 179.196 190.26C178.575 194.1 178.329 198.078 180.429 201.197C181.467 202.738 183.533 202.738 184.571 201.197C186.67 198.078 186.425 194.097 185.804 190.257C186.486 191.163 187.166 192.071 187.873 192.956C189.531 195.033 191.544 196.713 194.226 197.177C196.117 197.506 197.505 196.118 197.177 194.226C196.713 191.546 195.028 189.535 192.956 187.873ZM182.827 182.638C182.798 182.672 182.774 182.711 182.747 182.747C182.711 182.775 182.671 182.799 182.636 182.829C182.59 182.833 182.545 182.844 182.5 182.851C182.454 182.844 182.409 182.833 182.362 182.828C182.327 182.799 182.289 182.775 182.252 182.748C182.225 182.712 182.2 182.672 182.171 182.637C182.166 182.591 182.155 182.545 182.148 182.501C182.156 182.455 182.167 182.41 182.171 182.363C182.2 182.328 182.224 182.29 182.251 182.253C182.288 182.226 182.328 182.202 182.363 182.172C182.408 182.168 182.454 182.157 182.498 182.15C182.545 182.157 182.59 182.168 182.637 182.173C182.671 182.202 182.71 182.225 182.746 182.253C182.774 182.289 182.798 182.329 182.828 182.364C182.832 182.409 182.843 182.455 182.85 182.5C182.844 182.546 182.833 182.592 182.828 182.638H182.827Z" fill="#FFF4D8"/>
<path d="M35.9485 218.449C34.2315 233.759 40.2414 249.515 39.0198 265.007C38.9243 266.22 39.6147 266.945 40.498 267.2C41.306 267.66 42.3185 267.645 43.1149 266.703C49.44 259.223 57.7494 253.9 65.4712 247.972L62.1584 244.66C56.0339 249.363 49.5466 253.588 43.9382 258.893C43.5629 246.816 39.8622 234.979 40.3654 222.867L40.3517 222.854L39.9737 222.476L35.9485 218.449Z" fill="#FFF4D8"/>
<path d="M22.6902 213.246C18.3513 213.057 15.0889 216.361 14.5441 220.432C14.45 220.901 14.4495 221.384 14.5425 221.853C15.0681 225.825 18.1644 229.062 22.39 229.062C26.7043 229.062 30.2853 225.442 30.3061 221.146C30.3269 216.936 26.8552 213.427 22.6902 213.246ZM19.272 221.146C19.4873 217.146 25.5089 217.115 25.5089 221.146C25.5082 225.182 19.4862 225.144 19.272 221.146Z" fill="#FFF4D8"/>
<path d="M172.452 354.952C164.952 359.852 156.259 362.563 146.357 361.537C126.465 348.881 105.693 328.127 81.1229 331.418C95.1668 320.742 99.2145 302.576 102.233 284.732L96.687 279.187C94.4547 290.323 92.4388 301.541 87.4361 311.735C80.3861 326.102 67.2049 336.115 51.7621 339.798C50.8265 337.864 49.7794 335.986 48.626 334.174C48.3917 333.806 48.1433 333.453 47.9019 333.093C55.1767 329.576 62.7838 325.368 66.0772 317.558C67.973 313.064 68.0333 307.548 65.4242 303.355C68.032 301.005 70.4889 298.493 72.7803 295.834C76.658 298.003 81.5678 297.655 84.9273 294.322C88.7998 290.479 88.7998 283.915 84.9273 280.073C81.0419 276.217 74.56 276.191 70.6782 280.073C67.3308 283.42 66.9979 288.343 69.1657 292.219C66.5116 294.506 64.0042 296.958 61.6585 299.561C57.4784 296.94 51.8959 297.044 47.4418 298.922C39.6014 302.228 35.3855 309.894 31.8607 317.195C29.7137 315.785 27.4749 314.519 25.1593 313.408C28.8093 297.892 38.8468 284.639 53.2643 277.564C63.4573 272.562 74.6757 270.545 85.8126 268.313L80.267 262.767C62.4228 265.785 44.2577 269.833 33.5805 283.877C36.8703 259.309 16.1175 238.533 3.46221 218.643C2.43765 208.745 5.14924 200.053 10.0494 192.55L8.63408 191.134L4.03507 186.535C2.48427 188.918 1.13458 191.425 0 194.031L0 223.732C7.56882 237.116 17.9064 249.047 23.4292 263.486C29.4517 279.233 27.4942 296.52 18.6688 310.762C16.2391 309.937 13.7578 309.272 11.2411 308.772C13.9282 301.079 16.4035 292.626 13.1705 284.701C11.332 280.194 7.47045 276.266 2.67089 275.148C2.84861 271.636 2.80942 268.115 2.55354 264.608C6.82404 263.385 10.0758 259.749 10.0758 254.97C10.0758 249.497 5.4719 244.895 0.000365 244.895V249.693C6.82459 249.693 6.764 259.884 0.000365 260.248V282.637C5.89511 282.637 8.63152 289.321 8.75525 294.229C8.87388 298.945 7.20291 303.542 5.64801 307.93C3.77568 307.741 1.89301 307.644 0 307.639V312.425C14.0786 312.418 27.8482 317.827 38.0921 328.487C47.6119 338.394 52.6388 351.653 52.6907 365H57.455C57.4608 363.101 57.3742 361.203 57.195 359.308C61.2877 357.857 65.5394 356.329 69.9192 356.263C74.9962 356.187 82.3622 358.654 82.3622 365H104.752C105.117 358.238 115.307 358.179 115.307 365H120.105C120.105 359.676 115.758 355.164 110.448 354.947C105.505 354.745 101.661 358.034 100.394 362.447C96.892 362.191 93.378 362.152 89.8716 362.328C88.7715 357.53 84.7658 353.652 80.2989 351.83C72.4315 348.62 64.0292 351.041 56.381 353.706C55.8917 351.172 55.2314 348.675 54.4045 346.231C68.6127 337.494 85.829 335.571 101.514 341.57C115.951 347.093 127.885 357.431 141.268 365H170.968C173.575 363.865 176.083 362.516 178.465 360.965L172.452 354.952ZM81.5346 283.465C86.3548 288.285 79.0672 295.537 74.0704 290.929C69.4683 285.938 76.7124 278.643 81.5346 283.465ZM36.4206 320.519C38.2863 316.604 40.2166 312.519 43.262 309.382C46.7977 305.74 53.7486 302.271 58.2381 306.761C62.4088 310.931 59.6127 317.589 56.2321 321.148C53.0321 324.516 48.6746 326.58 44.5287 328.555C42.1035 325.611 39.3873 322.918 36.4213 320.519H36.4206Z" fill="#FFF4D8"/>
<path d="M324.649 222.853C325.135 234.948 321.437 246.813 321.061 258.89C315.453 253.585 308.969 249.363 302.845 244.658L302.842 244.66L300.247 247.256L299.539 247.964C307.256 253.894 315.564 259.228 321.886 266.704C322.681 267.644 323.693 267.661 324.5 267.203C325.384 266.949 326.077 266.225 325.981 265.008C324.758 249.51 330.817 233.767 329.077 218.426L324.649 222.853Z" fill="#FFF4D8"/>
<path d="M350.458 220.441C349.932 216.468 346.836 213.23 342.61 213.23C338.296 213.23 334.715 216.85 334.694 221.147C334.673 225.357 338.144 228.866 342.309 229.047C346.648 229.237 349.911 225.932 350.456 221.861C350.55 221.392 350.55 220.91 350.457 220.441H350.458ZM339.492 221.147C339.492 217.111 345.514 217.149 345.729 221.147C345.513 225.147 339.492 225.179 339.492 221.147Z" fill="#FFF4D8"/>
<path d="M360.966 186.535L354.953 192.548C359.852 200.049 362.563 208.741 361.537 218.644C348.881 238.535 328.128 259.308 331.419 283.878C320.742 269.834 302.576 265.786 284.733 262.768L279.187 268.314C290.324 270.546 301.541 272.562 311.735 277.565C326.119 284.623 336.139 297.826 339.812 313.292C337.506 314.448 335.278 315.753 333.142 317.2C329.615 309.895 325.404 302.232 317.559 298.923C313.064 297.028 307.548 296.967 303.355 299.576C301.005 296.968 298.493 294.512 295.834 292.22C298.004 288.343 297.655 283.433 294.321 280.073C290.479 276.201 283.916 276.201 280.073 280.073C276.218 283.959 276.191 290.441 280.073 294.322C283.42 297.67 288.343 298.002 292.22 295.835C294.507 298.489 296.959 300.996 299.561 303.342C296.94 307.521 297.044 313.106 298.922 317.559C302.235 325.412 309.92 329.63 317.232 333.158C315.798 335.295 314.507 337.524 313.367 339.831C297.87 336.173 284.634 326.142 277.564 311.736C272.562 301.543 270.545 290.325 268.313 279.187L262.767 284.733C265.785 302.577 269.833 320.742 283.878 331.419C259.309 328.129 238.533 348.882 218.643 361.538C208.745 362.562 200.053 359.851 192.55 354.95L192.547 354.953L186.535 360.966C188.917 362.516 191.425 363.866 194.031 365.001H223.732C237.116 357.432 249.047 347.094 263.486 341.571C279.193 335.563 296.431 337.498 310.652 346.266C309.794 348.692 309.102 351.173 308.581 353.693C300.939 351.032 292.56 348.624 284.701 351.831C280.194 353.67 276.266 357.531 275.148 362.331C271.636 362.153 268.115 362.193 264.608 362.448C263.385 358.178 259.749 354.926 254.97 354.926C249.497 354.926 244.895 359.53 244.895 365.001H249.693C249.693 358.177 259.884 358.238 260.248 365.001H282.638C282.638 359.107 289.321 356.37 294.23 356.247C298.874 356.13 303.404 357.749 307.731 359.283C307.537 361.183 307.438 363.092 307.435 365.001H312.226C312.287 344.086 325.15 324.967 344.725 316.254C351.189 313.737 358.063 312.439 365 312.426V307.64C363.117 307.634 361.23 307.718 359.339 307.892C357.879 303.773 356.33 299.492 356.264 295.081C356.187 290.004 358.653 282.638 365 282.638V260.249C358.238 259.884 358.18 249.693 365 249.693V244.896C359.676 244.896 355.164 249.243 354.947 254.553C354.745 259.496 358.034 263.34 362.447 264.607C362.191 268.108 362.152 271.622 362.329 275.129C357.53 276.229 353.652 280.235 351.83 284.701C348.611 292.591 351.055 301.017 353.728 308.682C351.195 309.164 348.696 309.813 346.248 310.623C337.497 296.41 335.568 279.182 341.571 263.487C347.093 249.05 357.432 237.116 365.001 223.732V194.032C363.866 191.426 362.516 188.918 360.966 186.535ZM290.929 290.929C285.939 295.532 278.643 288.288 283.465 283.465C288.286 278.642 295.537 285.933 290.929 290.929ZM320.616 328.625C316.671 326.745 312.545 324.809 309.382 321.738C305.74 318.202 302.271 311.251 306.761 306.762C310.931 302.591 317.589 305.387 321.148 308.768C324.551 312 326.622 316.414 328.615 320.597C325.698 323.012 323.02 325.7 320.616 328.625Z" fill="#FFF4D8"/>
</g>
</g>
<defs>
<clipPath id="clip0_50_3322">
<rect width="365" height="365" rx="182.5" fill="white"/>
</clipPath>
</defs>
</svg>
