<svg width="32" height="32" viewBox="0 0 32 32" fill="none" xmlns="http://www.w3.org/2000/svg">
<path d="M5.56861 6.98148C4.99581 6.59961 4.25933 6.56401 3.65237 6.88885C3.04541 7.21368 2.6665 7.84622 2.6665 8.53464V23.468C2.6665 24.1564 3.04541 24.7889 3.65237 25.1138C4.25933 25.4386 4.99581 25.403 5.56861 25.0211L15.7332 18.2448V23.468C15.7332 24.1564 16.1121 24.7889 16.719 25.1138C17.326 25.4386 18.0625 25.403 18.6353 25.0211L29.8353 17.5545C30.3546 17.2083 30.6665 16.6254 30.6665 16.0013C30.6665 15.3772 30.3546 14.7943 29.8353 14.4481L18.6353 6.98148C18.0625 6.59961 17.326 6.56401 16.719 6.88885C16.1121 7.21368 15.7332 7.84622 15.7332 8.53464V13.7578L5.56861 6.98148Z" fill="#D9DBE9"/>
</svg>
