<svg width="17" height="13" viewBox="0 0 17 13" fill="none" xmlns="http://www.w3.org/2000/svg">
<path fill-rule="evenodd" clip-rule="evenodd" d="M1.5 2.125C1.98325 2.125 2.375 1.73325 2.375 1.25C2.375 0.766755 1.98325 0.375 1.5 0.375C1.01675 0.375 0.625 0.766755 0.625 1.25C0.625 1.73325 1.01675 2.125 1.5 2.125ZM5.65625 0.8125C5.29382 0.8125 5 1.10632 5 1.46875C5 1.83118 5.29382 2.125 5.65625 2.125H15.7188C16.0812 2.125 16.375 1.83118 16.375 1.46875C16.375 1.10632 16.0812 0.8125 15.7188 0.8125H5.65625ZM5.65625 6.0625C5.29382 6.0625 5 6.35633 5 6.71875C5 7.08117 5.29382 7.375 5.65625 7.375H15.7188C16.0812 7.375 16.375 7.08117 16.375 6.71875C16.375 6.35633 16.0812 6.0625 15.7188 6.0625H5.65625ZM5.65625 11.3125C5.29382 11.3125 5 11.6063 5 11.9688C5 12.3312 5.29382 12.625 5.65625 12.625H15.7188C16.0812 12.625 16.375 12.3312 16.375 11.9688C16.375 11.6063 16.0812 11.3125 15.7188 11.3125H5.65625ZM2.375 6.5C2.375 6.98326 1.98325 7.375 1.5 7.375C1.01675 7.375 0.625 6.98326 0.625 6.5C0.625 6.01674 1.01675 5.625 1.5 5.625C1.98325 5.625 2.375 6.01674 2.375 6.5ZM1.5 12.625C1.98325 12.625 2.375 12.2333 2.375 11.75C2.375 11.2667 1.98325 10.875 1.5 10.875C1.01675 10.875 0.625 11.2667 0.625 11.75C0.625 12.2333 1.01675 12.625 1.5 12.625Z" fill="#0A0A0A"/>
</svg>
