<svg xmlns="http://www.w3.org/2000/svg" width="40" height="40" preserveAspectRatio="xMidYMid meet" version="1.0" viewBox="0 0 30 30"><g fill="#000" stroke="none"><path d="M65 247 c-3 -7 -4 -56 -3 -108 3 -93 3 -94 28 -94 l25 0 0 105 c0 101 -1 105 -23 108 -12 2 -24 -3 -27 -11z" transform="translate(0.000000,30.000000) scale(0.100000,-0.100000)"/><path d="M185 247 c-3 -7 -4 -56 -3 -108 3 -93 3 -94 28 -94 l25 0 0 105 c0 101 -1 105 -23 108 -12 2 -24 -3 -27 -11z" transform="translate(0.000000,30.000000) scale(0.100000,-0.100000)"/></g></svg>