<?xml version="1.0" standalone="no"?>
<!DOCTYPE svg PUBLIC "-//W3C//DTD SVG 20010904//EN"
 "http://www.w3.org/TR/2001/REC-SVG-20010904/DTD/svg10.dtd">
<svg version="1.0" xmlns="http://www.w3.org/2000/svg"
 width="30.000000pt" height="30.000000pt" viewBox="0 0 30.000000 30.000000"
 preserveAspectRatio="xMidYMid meet">

<g transform="translate(0.000000,30.000000) scale(0.100000,-0.100000)"
fill="#000000" stroke="none">
<path d="M65 247 c-3 -7 -4 -56 -3 -108 3 -93 3 -94 28 -94 l25 0 0 105 c0
101 -1 105 -23 108 -12 2 -24 -3 -27 -11z"/>
<path d="M185 247 c-3 -7 -4 -56 -3 -108 3 -93 3 -94 28 -94 l25 0 0 105 c0
101 -1 105 -23 108 -12 2 -24 -3 -27 -11z"/>
</g>
</svg>
