<svg width="800" height="600" viewBox="0 0 800 600" fill="none" xmlns="http://www.w3.org/2000/svg">
  <!-- Background gradient -->
  <defs>
    <linearGradient id="bgGrad2" x1="0%" y1="0%" x2="100%" y2="100%">
      <stop offset="0%" style="stop-color:#FFF8E7;stop-opacity:1" />
      <stop offset="100%" style="stop-color:#FFE4CC;stop-opacity:1" />
    </linearGradient>
    <linearGradient id="circleGrad2" x1="0%" y1="0%" x2="100%" y2="100%">
      <stop offset="0%" style="stop-color:#F57903;stop-opacity:0.15" />
      <stop offset="100%" style="stop-color:#F57903;stop-opacity:0.05" />
    </linearGradient>
  </defs>
  
  <!-- Background -->
  <rect width="800" height="600" fill="url(#bgGrad2)"/>
  
  <!-- Decorative circles -->
  <circle cx="120" cy="480" r="90" fill="url(#circleGrad2)"/>
  <circle cx="680" cy="120" r="70" fill="url(#circleGrad2)"/>
  <circle cx="150" cy="180" r="50" fill="url(#circleGrad2)"/>
  
  <!-- Main content area -->
  <rect x="200" y="150" width="400" height="300" rx="20" fill="white" opacity="0.7"/>
  
  <!-- Feather pen icon -->
  <path d="M380 240 Q370 260, 365 280 L365 350" stroke="#F57903" stroke-width="3" fill="none" stroke-linecap="round"/>
  <path d="M365 280 L355 275 L360 285 Z" fill="#F57903"/>
  <ellipse cx="377" cy="250" rx="18" ry="35" fill="#F57903" opacity="0.3" transform="rotate(-25 377 250)"/>
  <line x1="370" y1="245" x2="385" y2="235" stroke="#F57903" stroke-width="1" opacity="0.4"/>
  <line x1="372" y1="255" x2="387" y2="245" stroke="#F57903" stroke-width="1" opacity="0.4"/>
  <line x1="374" y1="265" x2="389" y2="255" stroke="#F57903" stroke-width="1" opacity="0.4"/>
  
  <!-- Scroll -->
  <rect x="405" y="270" width="60" height="80" rx="3" fill="none" stroke="#F57903" stroke-width="2"/>
  <circle cx="405" cy="280" r="5" fill="#F57903" opacity="0.3"/>
  <circle cx="405" cy="340" r="5" fill="#F57903" opacity="0.3"/>
  <circle cx="465" cy="280" r="5" fill="#F57903" opacity="0.3"/>
  <circle cx="465" cy="340" r="5" fill="#F57903" opacity="0.3"/>
  <line x1="415" y1="290" x2="455" y2="290" stroke="#F57903" stroke-width="1.5" opacity="0.4"/>
  <line x1="415" y1="305" x2="455" y2="305" stroke="#F57903" stroke-width="1.5" opacity="0.4"/>
  <line x1="415" y1="320" x2="455" y2="320" stroke="#F57903" stroke-width="1.5" opacity="0.4"/>
  <line x1="415" y1="335" x2="445" y2="335" stroke="#F57903" stroke-width="1.5" opacity="0.4"/>
  
  <!-- Text -->
  <text x="400" y="410" font-family="serif" font-size="28" fill="#F57903" text-anchor="middle" font-weight="bold">Lord Ganesh</text>
  <text x="400" y="440" font-family="sans-serif" font-size="16" fill="#666" text-anchor="middle">The Divine Scribe</text>
  
  <!-- Decorative elements -->
  <path d="M240 180 Q250 170, 260 180" stroke="#F57903" stroke-width="2" fill="none" opacity="0.3"/>
  <path d="M540 180 Q550 170, 560 180" stroke="#F57903" stroke-width="2" fill="none" opacity="0.3"/>
  <circle cx="220" cy="400" r="3" fill="#F57903" opacity="0.4"/>
  <circle cx="580" cy="400" r="3" fill="#F57903" opacity="0.4"/>
</svg>

