<svg width="32" height="32" viewBox="0 0 32 32" fill="none" xmlns="http://www.w3.org/2000/svg">
<path d="M13.3647 25.0211C13.9375 25.403 14.674 25.4386 15.281 25.1138C15.8879 24.7889 16.2668 24.1564 16.2668 23.468L16.2668 18.2448L26.4314 25.0211C27.0042 25.403 27.7407 25.4386 28.3476 25.1138C28.9546 24.7889 29.3335 24.1564 29.3335 23.468V8.53464C29.3335 7.84622 28.9546 7.21368 28.3476 6.88885C27.7407 6.56401 27.0042 6.59961 26.4314 6.98148L16.2668 13.7578V8.53464C16.2668 7.84622 15.8879 7.21368 15.281 6.88885C14.674 6.56401 13.9375 6.59961 13.3647 6.98148L2.16472 14.4481C1.64542 14.7943 1.3335 15.3772 1.3335 16.0013C1.3335 16.6254 1.64542 17.2083 2.16472 17.5545L13.3647 25.0211Z" fill="#D9DBE9"/>
</svg>
