<svg xmlns="http://www.w3.org/2000/svg" width="20" height="21" fill="none" viewBox="0 0 20 21"><path stroke="#0A0A0A" strokeLinecap="round" strokeLinejoin="round" strokeWidth="1.2" d="M18.0501 9.20138L17.2335 12.6847C16.5335 15.693 15.1501 16.9097 12.5501 16.6597C12.1335 16.6264 11.6835 16.5514 11.2001 16.4347L9.80014 16.1014C6.32511 15.2764 5.25011 13.5597 6.06678 10.0764L6.88344 6.58472C7.05011 5.87639 7.25011 5.25972 7.50011 4.75139C8.47514 2.73472 10.1335 2.19306 12.9168 2.85139L14.3085 3.17639C17.8001 3.99306 18.8668 5.71806 18.0501 9.20138Z"/><path stroke="#0A0A0A" strokeLinecap="round" strokeLinejoin="round" strokeWidth="1.2" d="M9.71661 10.8333L12.1333 11.45M12.5499 16.6583C12.0333 17.0083 11.3833 17.3 10.5916 17.5583L9.27494 17.9917C5.96659 19.0583 4.22492 18.1667 3.14992 14.8583L2.08325 11.5667C1.01658 8.25833 1.89992 6.50833 5.20825 5.44167L6.52492 5.00833C6.86658 4.9 7.19159 4.80833 7.49992 4.75C7.24992 5.25833 7.04992 5.875 6.88325 6.58333L6.06658 10.075C5.24992 13.5583 6.32493 15.275 9.79994 16.1L11.1999 16.4334C11.6833 16.55 12.1333 16.625 12.5499 16.6583ZM10.5333 7.60838L14.5749 8.63337L10.5333 7.60838Z"/></svg>