<svg width="15" height="12" viewBox="0 0 15 12" fill="none" xmlns="http://www.w3.org/2000/svg">
<path fill-rule="evenodd" clip-rule="evenodd" d="M0.833984 1C0.833984 0.447715 1.2817 0 1.83398 0H13.834C14.3863 0 14.834 0.447715 14.834 1C14.834 1.55228 14.3863 2 13.834 2H1.83398C1.2817 2 0.833984 1.55228 0.833984 1Z" fill="#1A1A1A"/>
<path fill-rule="evenodd" clip-rule="evenodd" d="M0.833984 6C0.833984 5.44772 1.2817 5 1.83398 5H13.834C14.3863 5 14.834 5.44772 14.834 6C14.834 6.55228 14.3863 7 13.834 7H1.83398C1.2817 7 0.833984 6.55228 0.833984 6Z" fill="#1A1A1A"/>
<path fill-rule="evenodd" clip-rule="evenodd" d="M0.833984 11C0.833984 10.4477 1.2817 10 1.83398 10H13.834C14.3863 10 14.834 10.4477 14.834 11C14.834 11.5523 14.3863 12 13.834 12H1.83398C1.2817 12 0.833984 11.5523 0.833984 11Z" fill="#1A1A1A"/>
</svg>
