<svg xmlns="http://www.w3.org/2000/svg" width="31" height="12" fill="none" viewBox="0 0 31 12"><path fill="#1A1A1A" fill-rule="evenodd" d="M0.166992 1C0.166992 0.447715 1.12638 0 2.30985 0H28.0241C29.2076 0 30.167 0.447715 30.167 1C30.167 1.55228 29.2076 2 28.0241 2H2.30985C1.12638 2 0.166992 1.55228 0.166992 1Z" clip-rule="evenodd"/><path fill="#1A1A1A" fill-rule="evenodd" d="M0.166992 6C0.166992 5.44772 1.12638 5 2.30985 5H28.0241C29.2076 5 30.167 5.44772 30.167 6C30.167 6.55228 29.2076 7 28.0241 7H2.30985C1.12638 7 0.166992 6.55228 0.166992 6Z" clip-rule="evenodd"/><path fill="#1A1A1A" fill-rule="evenodd" d="M0.166992 11C0.166992 10.4477 1.12638 10 2.30985 10H28.0241C29.2076 10 30.167 10.4477 30.167 11C30.167 11.5523 29.2076 12 28.0241 12H2.30985C1.12638 12 0.166992 11.5523 0.166992 11Z" clip-rule="evenodd"/></svg>