<?xml version="1.0" standalone="no"?>
<!DOCTYPE svg PUBLIC "-//W3C//DTD SVG 20010904//EN"
 "http://www.w3.org/TR/2001/REC-SVG-20010904/DTD/svg10.dtd">
<svg version="1.0" xmlns="http://www.w3.org/2000/svg"
 width="880.000000pt" height="880.000000pt" viewBox="0 0 880.000000 880.000000"
 preserveAspectRatio="xMidYMid meet">
<metadata>
Created by potrace 1.14, written by Peter Selinger 2001-2017
</metadata>
<g transform="translate(0.000000,880.000000) scale(0.100000,-0.100000)"
fill="#000000" stroke="none">
<path d="M1840 8792 c0 -5 -10 -8 -22 -7 -13 1 -31 -5 -41 -13 -16 -15 -17
-14 -11 4 7 18 7 18 -13 1 -11 -9 -23 -14 -27 -10 -4 4 -11 1 -16 -7 -9 -13
-10 -13 -10 0 -1 12 -3 12 -11 -2 -5 -9 -16 -15 -23 -12 -8 3 -17 1 -21 -5 -3
-6 -15 -11 -26 -11 -10 0 -19 -5 -19 -11 0 -5 -4 -7 -10 -4 -5 3 -10 1 -10 -5
0 -6 -4 -8 -10 -5 -5 3 -17 0 -25 -7 -9 -7 -21 -17 -28 -23 -7 -5 -20 -11 -31
-13 -10 -2 -28 -14 -41 -28 -12 -13 -25 -21 -28 -18 -3 3 -8 -4 -12 -15 -3
-12 -10 -19 -15 -16 -10 6 -66 -44 -62 -56 1 -5 -5 -9 -13 -9 -14 0 -19 -12
-16 -33 0 -4 -2 -6 -6 -6 -20 3 -34 -2 -28 -11 3 -6 -1 -13 -9 -16 -9 -3 -16
-12 -16 -20 0 -8 -8 -14 -17 -14 -15 0 -16 -2 -3 -10 13 -8 12 -10 -3 -10 -10
0 -15 -4 -12 -10 3 -5 1 -10 -6 -10 -7 0 -9 -3 -6 -6 4 -4 -2 -15 -14 -25 -14
-12 -16 -18 -7 -22 7 -3 4 -6 -7 -6 -17 -1 -17 -3 -5 -11 13 -8 12 -10 -3 -10
-10 0 -16 -4 -12 -9 3 -5 1 -12 -5 -16 -6 -4 -8 -11 -5 -16 4 -5 1 -9 -6 -9
-7 0 -9 -3 -6 -7 4 -3 -1 -15 -10 -26 -13 -15 -14 -18 -3 -12 13 8 13 7 1 -8
-7 -9 -10 -17 -5 -17 4 0 -1 -7 -12 -16 -19 -15 -19 -16 1 -10 19 6 19 5 1 -8
-10 -8 -15 -19 -11 -25 3 -6 2 -11 -2 -11 -5 0 -10 -8 -10 -17 -6 -56 -9 -73
-16 -79 -12 -12 -8 -26 6 -18 9 6 9 5 0 -8 -7 -8 -10 -18 -6 -22 4 -4 1 -11
-7 -16 -8 -6 -10 -10 -5 -10 6 0 8 -32 5 -85 -3 -47 -1 -85 4 -85 5 0 3 -6 -3
-14 -8 -10 -9 -16 -1 -21 6 -3 8 -11 4 -16 -7 -12 -10 -97 -3 -103 2 -3 2 -35
-1 -71 -3 -37 -3 -68 1 -71 4 -2 3 -19 -1 -38 -5 -22 -4 -38 3 -45 8 -8 7 -11
-2 -11 -7 0 -9 -4 -6 -10 5 -9 7 -85 3 -187 -1 -24 0 -45 3 -47 2 -3 2 -35 -1
-71 -3 -37 -3 -68 1 -71 4 -2 3 -19 -1 -38 -5 -22 -4 -38 3 -45 6 -6 7 -11 2
-11 -11 0 -11 -92 -1 -109 4 -6 4 -11 -1 -11 -7 0 -9 -73 -2 -90 1 -3 0 -9 -1
-15 -5 -25 -3 -95 2 -101 4 -3 3 -17 -2 -30 -5 -13 -5 -26 -1 -29 5 -3 5 -20
1 -39 -5 -22 -4 -38 3 -45 8 -8 7 -11 -2 -11 -7 0 -9 -4 -6 -10 5 -9 6 -45 4
-185 0 -22 0 -44 1 -50 1 -5 2 -13 1 -18 -7 -41 0 -170 9 -188 15 -29 45 -59
60 -59 5 0 10 -5 10 -10 0 -6 3 -9 8 -9 36 6 37 1 36 -133 -1 -86 2 -138 10
-147 8 -11 8 -13 -1 -8 -6 4 -14 3 -18 -3 -3 -5 2 -10 12 -10 14 0 13 -3 -7
-17 -14 -10 -28 -17 -33 -15 -4 1 -7 -3 -7 -9 0 -5 -4 -8 -9 -5 -11 7 -33 -19
-24 -28 4 -4 -1 -4 -11 0 -13 5 -17 4 -13 -3 4 -6 0 -13 -8 -17 -8 -3 -12 -12
-9 -21 3 -8 1 -15 -6 -15 -6 0 -8 -4 -5 -10 5 -9 7 -85 3 -187 -1 -24 0 -45 3
-47 2 -3 2 -34 -1 -71 -3 -37 -1 -70 4 -75 6 -6 6 -10 0 -10 -5 0 -9 -38 -9
-85 0 -47 4 -85 8 -85 5 0 6 -4 3 -9 -7 -11 -12 -139 -6 -145 3 -2 3 -41 0
-85 -3 -45 -1 -81 3 -81 5 0 6 -4 3 -9 -7 -11 -12 -139 -6 -145 3 -2 3 -41 0
-85 -3 -45 -1 -81 3 -81 5 0 6 -4 3 -9 -7 -11 -12 -139 -6 -145 3 -2 3 -48 0
-101 -3 -55 -1 -100 4 -106 6 -6 6 -9 0 -9 -8 0 -11 -96 -2 -105 2 -2 1 -33
-2 -70 -3 -37 -1 -70 4 -75 6 -6 6 -10 0 -10 -5 0 -9 -66 -9 -160 0 -88 3
-160 7 -160 3 0 4 -8 2 -17 -10 -39 -9 -203 1 -203 7 0 7 -3 0 -8 -5 -4 -10
-29 -10 -57 0 -27 5 -53 10 -57 7 -5 7 -8 0 -8 -6 0 -10 -41 -10 -102 0 -57 4
-106 10 -110 7 -5 7 -8 0 -8 -5 0 -10 -11 -10 -25 0 -14 4 -25 8 -25 5 0 5 -5
1 -12 -10 -15 -10 -61 0 -76 4 -7 4 -12 -1 -12 -4 0 -8 -54 -8 -120 0 -73 4
-120 10 -120 7 0 7 -3 0 -8 -5 -4 -10 -34 -10 -67 0 -33 5 -63 10 -67 7 -5 7
-8 0 -8 -5 0 -10 -16 -10 -35 0 -19 5 -35 10 -35 7 0 7 -3 0 -8 -5 -4 -10 -43
-10 -87 0 -44 5 -83 10 -87 7 -5 7 -8 0 -8 -9 0 -12 -1017 -3 -1037 2 -5 3
-29 3 -56 0 -26 3 -47 8 -47 5 0 7 -10 4 -22 -4 -12 -1 -28 5 -35 6 -7 7 -13
3 -13 -4 0 -1 -8 6 -17 12 -14 12 -15 1 -9 -11 7 -12 4 -3 -13 7 -12 9 -26 6
-31 -4 -6 -3 -10 2 -9 20 3 25 -2 13 -16 -9 -10 -9 -15 -1 -15 6 0 11 -9 11
-19 0 -11 5 -21 10 -23 6 -2 12 -13 15 -26 4 -22 34 -82 46 -92 4 -3 9 -15 13
-28 4 -12 12 -20 17 -17 8 6 11 -2 8 -22 0 -3 6 -10 15 -15 9 -5 16 -16 16
-23 0 -8 6 -15 14 -15 7 0 20 -8 27 -17 12 -15 12 -16 -1 -8 -8 4 -5 -2 7 -14
12 -11 28 -21 34 -21 7 0 10 -3 6 -6 -6 -7 16 -34 28 -34 12 0 34 -27 28 -34
-4 -3 3 -6 15 -6 12 0 22 -5 22 -12 0 -6 3 -9 6 -5 8 8 42 -26 36 -37 -2 -4 5
-5 16 -2 13 4 22 1 26 -9 3 -8 12 -15 21 -15 8 0 15 -6 15 -12 0 -9 4 -8 10 2
7 11 10 11 10 2 0 -12 56 -39 73 -34 4 1 7 -3 7 -9 0 -6 6 -9 13 -6 6 2 21 -1
32 -6 21 -12 36 -15 73 -19 12 -1 22 -6 22 -10 0 -4 10 -8 23 -9 12 -1 1292
-4 2845 -6 2269 -2 2822 -1 2816 9 -6 10 -5 10 7 1 9 -8 20 -9 29 -3 8 6 25
10 38 10 13 0 20 4 17 10 -6 9 8 14 28 11 4 -1 10 6 13 14 3 8 9 13 13 12 3
-2 23 13 44 35 20 21 34 38 30 38 -4 0 2 7 13 16 10 8 13 13 7 9 -9 -4 -11 -1
-7 9 3 9 10 16 15 16 5 0 9 9 9 20 0 11 5 20 10 20 6 0 10 5 10 11 0 5 -6 7
-12 3 -10 -6 -10 -5 -1 7 6 8 12 55 13 109 0 52 2 114 3 138 1 23 -2 42 -8 42
-7 0 -7 3 0 8 6 4 10 55 10 117 0 62 -4 113 -10 117 -7 5 -7 8 0 8 6 0 10 45
10 115 0 70 -4 115 -10 115 -7 0 -7 3 0 8 6 4 10 34 10 67 0 33 -4 63 -10 67
-7 5 -7 8 0 8 6 0 10 16 10 35 0 19 -4 35 -8 35 -5 0 -5 5 -1 12 11 18 10 68
-1 68 -7 0 -7 3 0 8 6 4 10 21 10 37 0 17 -4 33 -10 37 -7 5 -7 8 0 8 6 0 10
16 10 35 0 19 -4 35 -10 35 -7 0 -7 3 0 8 12 8 14 72 2 72 -4 0 -5 5 -1 12 11
18 10 68 -1 68 -7 0 -7 3 0 8 12 8 14 72 2 72 -4 0 -5 5 -1 12 11 18 10 68 -1
68 -7 0 -7 3 0 8 6 4 10 21 10 37 0 17 -4 33 -10 37 -7 5 -7 8 0 8 6 0 10 16
10 35 0 19 -4 35 -10 35 -7 0 -7 3 0 8 6 4 10 21 10 37 0 17 -4 33 -10 37 -7
5 -7 8 0 8 6 0 10 16 10 35 0 19 -4 35 -10 35 -7 0 -7 3 0 8 6 4 10 21 10 37
0 17 -4 33 -10 37 -7 5 -7 8 0 8 14 0 10 1013 -4 1018 -6 2 -11 13 -11 23 0
11 -4 17 -10 14 -5 -3 -10 1 -10 9 0 8 -4 18 -10 21 -6 3 -7 -1 -4 -12 3 -10
-1 -7 -9 6 -9 15 -17 20 -21 12 -13 -21 -40 19 -38 56 2 19 -3 41 -9 49 -10
12 -9 13 6 8 14 -6 16 -4 10 6 -14 22 -8 212 7 221 6 4 16 5 20 3 4 -3 8 2 8
10 0 10 6 13 15 10 8 -4 15 -1 15 6 0 6 4 8 10 5 6 -3 10 3 10 13 0 11 6 22
13 25 8 3 14 25 16 53 1 27 3 1110 4 2407 2 1880 -1 2357 -10 2357 -7 0 -13 5
-13 11 0 5 5 7 11 3 8 -5 8 -1 0 13 -6 11 -7 23 -4 27 3 3 1 6 -6 6 -7 0 -9 5
-6 10 3 6 0 10 -7 10 -10 0 -10 2 -1 8 9 6 7 12 -7 22 -11 8 -20 18 -20 21 0
11 -60 69 -71 69 -6 0 -7 5 -3 11 4 7 1 10 -7 7 -7 -2 -22 5 -32 16 -10 12
-15 14 -11 6 7 -13 5 -13 -9 -2 -9 8 -22 10 -28 6 -7 -4 -9 -3 -6 3 4 6 -5 13
-21 16 -15 4 -1286 6 -2825 7 -2232 0 -2797 -3 -2791 -13 5 -9 4 -9 -7 1 -15
14 -39 16 -39 4z"/>
</g>
</svg>
